<svg xmlns="http://www.w3.org/2000/svg" viewBox="0 0 750 750"><defs><style>.a{fill:#ed8d18;}.b{fill:#e6b8af;}.c{fill:#030101;}.d{fill:#50c878;}.e{fill:#40a3fc;}.f{fill:#775ca8;}.g{fill:#3498db;}.h{fill:#ad1453;}.i{fill:#646287;}.j{fill:#ded7a6;}.k{fill:#432ba5;}.l{fill:#00ffcd;}.m{fill:#feb806;}.n{fill:#100966;}.o{fill:#ebd785;}.p{fill:#f1c40f;}.q{fill:#060;}.r{fill:#eba4a4;}.s{fill:#1f8a4c;}.t{fill:#4169e1;}.u{fill:#a18b2b;}.v{fill:#713a8a;}.w{fill:#2c7d47;}.x{fill:#a84300;}.y{fill:#47bee4;}.z{fill:#fff;}.aa{fill:#eb1c24;}.ab{fill:#5e60e6;}.ac{fill:#b67a15;}.ad{fill:lime;}.ae{fill:#faabcb;}.af{fill:#ffa846;}.ag{fill:#ffce00;}.ah{fill:#e9d4ff;}.ai{fill:#1aafba;}.aj{fill:#f7ef8d;}.ak{fill:#002d90;}.al{fill:#ba5b13;}.am{fill:#411010;}</style></defs><polygon class="a" points="-0.9 135.2 0.6 135.5 1 135.8 2 135.8 2.8 135.8 3.7 136.2 4.4 136.4 5.8 136.4 7.1 135.9 8.5 136 9.3 136.8 9.9 137.4 10.2 137.5 11.1 137.5 12.6 136.9 13.3 136.6 15.3 137 17.6 137.6 18 138.2 18 140.3 18.3 141.1 19 141.4 20.9 141.4 22.1 142.7 22.8 143.1 24.4 143.9 25.9 144.3 26.5 144.5 27.8 145.7 28.8 147 29 148 29.6 148 30.2 149.1 31.6 151.1 32.2 152 32.4 153.6 32.8 154.9 34.6 156.7 35.2 157.2 36.2 158.2 37.6 158.6 40.4 158.8 42.7 159.3 45.5 159.3 48.7 158.4 50.7 157.9 52.5 157.7 54.7 156.5 56.3 155.1 58.4 154.3 62.2 154.3 62.9 154.5 64.5 154.2 68.1 152.1 68.4 151.7 67.7 147.8 68.2 144.8 69.8 143.3 71.5 143 73 141.8 73.7 139.1 75.3 138.9 76.6 139 78.1 139.9 79 140.4 79.5 140.9 80.3 141.3 80.9 143 81.2 143.5 83.3 143.2 85.4 141.8 86.3 141.6 87.4 142 89.2 142 89.7 139.8 90.9 138.5 91.8 138.7 92.9 140 92.6 141.3 92.6 142.2 93.8 141.9 94.5 141.6 96.2 141.8 96.2 144.1 96.1 146.8 96.8 148.5 97.8 149.9 97.5 152.1 96.9 153.6 96.7 154.5 96.9 155.3 99.7 155.4 99.9 156.8 100.4 157.4 100.4 159.6 101.1 161.3 103.3 159.5 103.3 158.3 104.4 157.5 107.1 157.1 107.9 156.2 108 155 108.9 154.6 110.3 155.1 112.7 154.5 114.5 156.3 115.2 156 115.5 155 116.6 154.4 116.9 153.7 117.5 153.4 118.9 153.4 121.4 152.8 123.1 152.6 124.3 151.5 125.3 151.6 126.5 152.4 124 154.6 123.1 155.7 123.6 157.8 124 159.2 123.9 160.4 124.6 162.9 125.1 164.8 125.2 165.5 126.9 165.8 129.2 165.8 132.4 165.5 133.9 167 134.1 168.7 132.7 171 132.4 171.9 132.4 172.9 131.1 175 131.1 175.7 132.5 177.1 133.8 177.6 135.3 177.6 136.9 179 138.8 181.4 139.2 182.5 141.3 185.5 142.1 186.4 141.3 187.3 141.7 188.3 141.9 189.3 142.7 189.8 144.4 189.4 146 189 147.5 189.5 148.6 190.2 149.4 191.6 149.6 192.9 148.7 194 148 194 147.3 194.9 145.7 194.4 144 194.7 142.6 195.1 141.9 195.9 140.5 195.9 140 197.3 138.5 198.8 135.4 204.2 133.6 206.3 133.2 207.2 132.5 208.1 131.5 210.4 129 212.5 126.9 213.2 124.6 214.6 124.5 215 123 215.8 121.4 217.5 120.4 218.4 119.5 220.5 119.5 221.5 118.2 222.8 117.9 223.7 117.7 224.9 117.4 225.7 117.7 227.5 120.8 230.2 123.8 233.3 122.7 233.5 122.2 233.9 120.8 233.9 120.1 234.7 119.1 234.7 118.3 235.5 116.7 235.5 115.7 236.6 115.1 236.6 114.1 237.6 110.9 238.9 110.7 240.4 112.1 242.8 111.8 244.8 110.8 246.6 110.7 247.2 109.8 248.7 110 249.8 110.9 250.4 111.6 251.3 113.5 251.3 113.7 252.7 113.8 253.1 114.9 253.1 115.2 254.5 115.7 255.1 115.4 256.7 113.5 256.9 112.2 258.2 111.8 259.3 111.1 259.8 111.1 261.8 109.3 263.2 108.7 265.2 108.9 267 108.2 267.9 108.2 269.6 107 273.1 107 276.1 111.1 280.1 113.4 281.3 114.2 282.7 113.8 283.5 113 284.5 110.4 284.5 109.7 284.9 109 284.9 106.8 286.9 105.9 287.3 104.9 288.3 105 288.8 107.3 289.6 108.4 290.6 108.7 292 109.2 292.5 110.3 292.9 111.6 292.9 112.3 294.1 112.4 295.1 112.6 295.5 112.7 297.2 112.9 297.9 115.1 300.5 115.5 301 116.9 301.5 116.8 302.4 116.1 302.9 115.9 304.8 114.5 304.2 112.7 304.2 111.2 303 109.5 303 108.2 304.3 105.8 304.3 104.2 303.8 102.6 304.1 101.6 304.7 97.2 305.1 95.2 307.4 95 308.4 97.3 310.2 96.8 311.6 95.7 312.9 95.2 316.1 96.3 316.3 98.2 316.7 99 317.3 99.6 318.8 99.5 319.8 98.7 321 98.2 321.4 97.2 321 96.3 319.9 93.8 318.2 92.1 317.4 89.6 314.7 89.4 313.2 88.1 312 88.2 311.2 86.4 310.8 84.9 311.8 84.4 314.2 83 314.9 82.3 317.3 77.6 317.3 76.1 318.1 74.8 317.1 72.3 316.6 68.7 317.5 67.8 318.8 67.6 319.7 68.7 321 69.3 321.4 71.7 321.4 72 321.7 71.8 323.8 71.3 324.1 70.4 323.8 69.3 324.5 67.8 323.8 67.6 323.3 66.4 324.3 65.3 324.9 64.7 325.7 64.5 328.3 63.2 328.3 61.9 327.9 60.3 326.4 60 325.2 58 325.4 57.5 326.1 56.2 326.4 -0.3 326.4 -0.9 135.2"/><polygon class="b" points="67.7 147.8 68.2 144.8 69.8 143.3 71.5 143 73 141.8 73.7 139.1 75.3 138.9 76.6 139 78.1 139.9 79 140.4 79.5 140.9 80.3 141.3 80.9 143 81.2 143.5 83.3 143.2 85.4 141.8 86.3 141.6 87.4 142 89.2 142 89.7 139.8 90.9 138.5 91.8 138.7 92.9 140 92.6 141.3 92.6 142.2 93.8 141.9 94.5 141.6 96.2 141.8 96.96 140.72 95.39 138.8 97.02 137.81 96.97 135.98 95.44 134.31 95.68 131.52 97.31 130.06 96.78 128.49 95.91 127.67 96.14 126.33 99 120.16 101.73 115.33 103.86 113.15 104.2 112.1 103.94 111.14 102.67 109.97 99.35 108.45 96.26 106.47 93 103.09 93 86.03 93 77.7 45.06 77.41 45.1 78.4 45.2 81.2 45.3 82.8 45.3 84 44.3 84.8 44.1 85.6 44.7 87.3 44.2 88.5 42.5 88.7 40.8 89.9 40.09 90.67 40.66 91.78 43.78 101.25 46.41 104.43 46.07 106.47 48.35 109.44 46.35 109.8 42.52 109.36 41.3 110.76 39.77 109.1 37.85 110 37.21 112.55 36.19 113.32 36.83 115.11 37.85 117.21 40.41 116.38 43.41 116.32 43.86 118.24 45.14 119.58 47.18 119.13 51.67 119.96 51.94 136.88 51.97 147.8 60.06 148.63 67.85 148.63 67.7 147.8"/><polygon class="c" points="108.8 66.4 108.6 67.3 108.8 70.1 108.4 71.5 107.5 72 106.1 72 104.5 73.1 104.1 74 103.1 74 101.1 73.3 101.1 72.7 100.3 71.8 98.3 71.4 97.1 72.1 97.4 72.5 99.1 73.6 101.6 74.9 103.8 76.1 105.6 76.3 106.4 75.8 106.8 75.1 107.9 75.1 108.3 75.6 108.3 77.8 108.2 80.8 108.3 83 109.3 84 110.9 84.3 112.2 83.3 115.3 83.8 116.2 85.1 118.2 85.7 119.9 87.1 120 87.9 119.3 89.3 120.5 91.3 120.2 95.8 119.8 96.6 119.8 97.6 118.9 99.3 118.3 103.1 117.5 104.4 115.3 106.2 113.2 108.5 110.3 110.7 109.3 110.7 105.9 112.8 105.1 114.4 105 118.3 104.6 118.7 104.5 120.2 104.1 120.8 103.8 122.4 104.4 123.8 106.5 124 108.4 125.5 110.6 130 111.8 131.8 112.9 133.4 115.5 140.4 117.8 143.1 124.3 145.9 126.2 147.6 126.5 152.4 124 154.6 123.1 155.7 124 159.2 123.9 160.4 125.1 164.8 125.2 165.5 126.9 165.8 129.2 165.8 132.4 165.5 131.3 163.9 131.6 162 133.5 160.1 134.6 157.9 135.5 158 136.7 159 137.8 158.7 138.6 158.2 139.1 158.4 142.5 158.2 143.6 158.8 145.3 158.5 146.3 158 147.3 158 147.4 159.7 148.1 160.1 149.2 160.1 150.2 161.1 150.2 162.4 149.6 163 149.6 163.6 152.5 164 154.3 162.8 154.9 162.2 156.2 162.8 156.6 164.1 157.7 165.1 159.1 164.3 160.1 164.7 162.1 164.7 164 163.9 166 162 166 161.1 167.7 160.2 169 160.2 172.5 157.9 173.5 156.4 174.3 156.3 176.2 153.7 174.1 149.9 173 149.7 172 148.6 171.6 147.1 170.2 144.8 169.5 143.7 169.4 142.6 171 141.2 175.8 139.4 178.1 136.8 178.4 134.5 177.6 129.6 177.9 125.1 178.7 123.8 185.4 120 187.1 118.4 188.4 115.8 190.8 113.5 193.6 112.2 196.5 112.2 196.5 111.7 195.8 111.2 193.9 111.2 193.3 110.7 192.9 107.3 194.2 105.6 195.5 105.9 196.1 105.7 196.5 101.9 198.6 99 198.1 98.5 196.9 95.4 196.4 94.4 194.8 93.1 194.1 92.3 193.1 89 192.1 88.6 190.9 88.8 189.2 87.4 189.7 86.6 190.5 86 190.5 83.1 189.7 82.9 188.4 83.4 187.4 82.3 187.1 81 187.4 80.6 188.6 80.4 190.3 78.8 190.8 76.3 190.3 75.6 189.6 75.5 188.6 76.8 187.7 76.6 183.9 72.4 182.5 72.5 180.3 71.8 180.3 70.8 179.7 70.2 178.4 70.1 177.4 70.9 175.9 70.3 174.3 70 172.9 71 171.7 70.5 170.6 69.4 168.5 68.7 169 67.2 168.4 65.9 166 65.7 164.2 66.5 163 66.2 161.9 66.2 161.5 64.6 160.3 63.2 160.4 61.3 161.1 60.6 160.6 59.6 160.6 59 159.6 58.2 158.4 58 156.8 56.8 155.9 57.7 154.6 57.6 153.2 56.5 153.3 54.6 155 53.8 155.8 52.8 156.5 52.8 157 53.3 158.1 53.5 159.4 54.3 160.5 54.3 160.4 52.2 161.2 50.9 161 49.2 160.1 48.1 160.8 47 160.6 45.8 159.5 45 157.7 45.3 155.5 42.2 155.5 41.4 154.2 39.6 154.7 38 156.8 36.6 157 34.9 156.4 34.4 156.4 33.8 155.3 33 153.5 32.5 154.6 29 154 28.3 154.1 27.1 153.2 26.4 152 26.7 150.3 26 145.2 26.3 142.4 25.4 141.1 27.3 140.7 29.1 140.2 32.9 137.3 33.3 135.2 33.1 134 34 132.8 34 131.7 34.8 131 36.5 127.8 38.9 127.7 40.5 126.6 42.1 125.6 42.1 124.4 41.2 122.6 41.1 121.4 42.2 117.6 40.2 117.3 39.3 115.7 39.1 114.1 37.7 113.9 36.6 112.5 37.7 112.6 39.9 110.2 42.3 106.7 43.2 104.5 44.4 102.1 46.3 98.7 47.6 96.1 49.1 93.1 52.5 90.7 52.1 88.6 52.2 87.2 53.6 86.7 54.5 87.4 56.5 89.8 58.1 90.7 58.4 92.1 58.2 94.1 59.6 97.7 60.8 100.2 61.8 101.7 61.8 102.9 62.8 104.4 62.9 108.8 66.4"/><rect class="d" x="606.4" y="710" width="9.5" height="8.9"/><polyline class="e" points="549.8 578.3 552.8 579.8 554.4 581.4 554.1 586.3 555.1 587 557.9 591.9 558.7 592.8 560.9 594.1 561.3 594.9 561.5 597.4 562.6 600.7 565.6 608.8 566.5 609.4 567 613.6 571.4 616.4 571.4 617.1 574.9 618.9 579 621.9 584.1 624.3 590.3 627.2 590.9 628.3 589.9 629.6 588.9 629.8 587.8 631 589.2 632.7 591.3 634.4 591.5 636.7 590.1 638.7 587.3 640 586.7 643.9 587.4 645 587.3 646.4 589.9 649.4 590.7 652.4 593.4 655.2 594.7 657.7 597.2 660 598.4 660.6 604 662.6 606.3 661.3 607.2 661.3 608 663.1 611.4 664.4 613.9 666.7 614.8 669.9 616 672.9 615.4 674 617 677.4 618.7 679.6 619.2 683.4 619.2 685.6 620.1 688.8 623.6 691.3 628.8 693.3 633.6 694.5 635.2 694.4 637.6 696.7 638.3 698.7 639.2 699.1 642.1 698.8 644.5 697.3 653.5 691.4 658.3 688.1 663.6 681.9 664 680 661.5 674.5 661.9 672.5 668.7 671.9 674.1 670.4 677.1 668.5 679.6 660.2 679.7 656.7 678.3 654.1 673 652.6 670.1 651.1 669.9 648.8 671.9 643.9 673 638 672.6 630.3 671.5 626.6 669.6 626 667.1 623.6 665.8 617.5 665.7 616.3 663.3 616.3 661.5 618.1 658 618.6 652.4 617.6 651.7 616 651.5 612.2 652.3 610.7 654.8 606.2 655.7 603.3 653.5 597.8 649.9 592.3 646.5 590.9 645 590 643.8 586.6 641.3 580.8 636 576.2 633.1 573.8 628.8 572.2 626.7 573 623.9 575.8 622 579 619.8 581.3 617.4 582.2 615.8 581.3 614.3 582 613.9 583.9 612.4 584.6 609 584.8 607.9 582.2 608.6 575.1 607.9 572.7 608.4 572 608.4 568.8 606.6 568.3 598 568 594.8 565.1 591.8 558 583.4 552.4 579.2 554.4 576 553.3 574 552.2 571.9 552.9 570.3 552.5 566.2 552.5 562.2 552.9 561.1 554.1 561.4 558.5 563.8 566 563.4 568.5 561.8 571.2 559.2 572.5 556.4 574.4 553 574.4 550.5 576.3 549.8 578.3"/><polyline class="f" points="560.8 608.2 562.6 607.5 563.8 607.5 565.6 608.8 561.5 597.4 561.3 594.9 560.9 594.1 558.7 592.8 557.9 591.9 555.1 587 554.1 586.3 554.4 581.4 552.8 579.8 549.8 578.3 546.9 577.8 544 577.8 541.7 577.3 536.4 589.8 537.4 591.5 538 593.1 538.6 594.7 540 594.7 540.9 595.8 544.5 597.2 545.4 598.7 547.4 597.6 548.3 599.8 552.1 600 558.8 602.2 561.4 602.2 562.5 603.3 561.6 605.1 561.1 607.6 560.8 608.2"/><polygon class="g" points="571.6 750 570.4 746.6 574.7 744.1 574.7 739.5 576.6 737.2 576.6 735.2 579.7 734.3 582.4 732.6 584 733.1 584.9 734.4 589.2 734.1 594.8 734.6 599.7 736.5 604.3 738.7 608.5 742.1 609.4 744.1 606.4 744.7 605.4 747.3 604.7 750 571.6 750"/><polygon class="h" points="676.6 750 677.2 746.1 674.2 743.6 672.7 741.1 674.6 738.7 674.6 737.2 678.3 735.7 677.5 734.6 677.4 733.6 676.6 733.3 676.4 732.1 678.3 730.3 678.3 728.7 680 727.4 682.3 727.7 681.7 725.9 676.3 723.6 676.3 720.6 673.6 719.6 670.9 719.2 670.9 717.5 675 713.5 675.5 711.6 677 709.6 676.8 708.1 676.8 706.6 679.9 705.1 680.7 702.6 682.3 701.1 681.6 696.4 683.3 691.4 683.3 689.8 685.7 685.4 687.9 684.1 689 684.8 689.3 687.5 692.7 687.4 693.5 688.3 692.8 689.1 693.8 690.6 697.1 691.6 701.5 692.1 705.5 691.4 710 692.9 712.4 691.4 715.8 688.9 717.7 690.9 720.5 691.6 721.6 689.2 724.8 687.7 724.3 685.8 724.8 685 724.8 683 726 681.6 728.6 682.3 728.6 684.6 728.9 686.8 731 688.5 731.5 690.2 732.9 691.6 735.5 690.5 737.3 692.2 739.4 691.4 741.6 690.9 742.8 691.3 745 689.3 745.9 686.5 750 681.6 750 750 676.6 750"/><polygon class="i" points="686.5 691.1 687.6 691.1 688.2 689.3 689.3 687.5 692.7 687.4 693.5 688.3 692.8 689.1 693.8 690.6 697.1 691.6 701.5 692.1 705.5 691.4 710 692.9 712.4 691.4 713.8 695.3 713.5 696.3 715.9 699.4 715.9 703.2 714.7 707.5 717 710.9 717 711.9 715.9 713.3 715.9 716.8 716.5 718 679.1 718 678.9 705.6 679.9 705.1 680.7 702.6 682.3 701.1 684 699.7 684.7 697.1 686 695.1 686.2 692.8 686.5 691.1"/><polygon class="j" points="676.5 745.5 674.8 746.4 672.7 744.6 671.7 740.9 669.4 740.5 666.8 738.5 662.7 738.4 659.6 736.9 659.8 735.9 657.2 732.7 655.3 733.2 655.2 732 653.7 732.5 653.5 734 652.5 734.2 651.1 735.7 648.5 735.7 647 733.6 647 732.6 649.4 730.2 651 726.6 651.1 725 650 724.2 649.7 721.2 647.2 722.6 644.4 718.1 645.4 717.9 644.4 716.2 644.4 714.4 646.1 711.4 648.9 709.9 649.9 709.9 654.8 706.1 659.1 705.9 661.7 706.2 666.3 705.9 676.8 708.1 677 709.6 675.5 711.6 675 713.5 670.9 717.5 670.9 719.2 673.6 719.6 676.3 720.6 676.3 723.6 681.7 725.9 682.3 727.7 680 727.4 678.3 728.7 678.3 730.3 676.4 732.1 676.6 733.3 677.4 733.6 677.5 734.6 678.3 735.7 674.6 737.2 674.6 738.7 672.7 741.1 674.2 743.6 676.5 745.5"/><rect class="k" x="539.4" y="666.1" width="32.2" height="14.1"/><polygon class="l" points="750 454.3 735.6 455.2 734.1 456.6 732.8 458.2 732.3 463.1 731 467.4 731 475.4 733.9 479.4 738.3 482 741.1 487 741.7 490.1 740.7 492.9 737.2 497.7 732.6 501.1 732.4 501.9 728.8 502.5 726.8 502.9 724.2 505.4 724.4 509.1 725.8 511.2 728.4 512.3 730.6 512.3 731.9 513.1 733.3 516.1 734.4 520.3 734.4 524.1 733.5 525.5 732 526.8 730.6 528.7 728.2 529.5 723.9 530.3 720.6 528.8 717.5 528.8 713 533.5 712.5 534.5 712.9 538 715.8 540.8 717.8 541.8 722 540.6 723.5 539.9 725.3 540.8 726.9 543.4 728.6 547.8 731 549 734.5 549 736.4 550.6 738.6 555.4 740.2 558.6 741.8 559.3 744.5 556.9 745.3 555.1 747.4 553.3 749.1 554.1 750 555.9 750 454.3"/><polygon class="m" points="97.8 149.9 97.5 152.1 96.9 153.6 96.7 154.5 96.9 155.3 99.7 155.4 99.9 156.8 100.4 157.4 100.4 159.6 101.1 161.3 103.3 159.5 103.3 158.3 104.4 157.5 107.1 157.1 107.9 156.2 108 155 107.2 154.7 105.4 152.6 102.8 150.6 97.8 149.9"/><polygon class="n" points="196.5 112.2 193.6 112.2 190.8 113.5 188.4 115.8 187.1 118.4 185.4 120 178.7 123.8 177.9 125.1 177.6 129.6 178.4 134.5 178.1 136.8 175.8 139.4 171 141.2 169.4 142.6 169.5 143.7 171.6 147.1 172 148.6 173 149.7 174.1 149.9 176.2 153.7 174.3 156.3 173.5 156.4 172.5 157.9 169 160.2 167.7 160.2 166 161.1 166 162 164 163.9 162.1 164.7 160.1 164.7 159.1 164.3 157.7 165.1 156.6 164.1 156.2 162.8 154.9 162.2 154.3 162.8 152.5 164 149.6 163.6 149.6 163 150.2 162.4 150.2 161.1 149.2 160.1 148.1 160.1 147.4 159.7 147.3 158 146.3 158 145.3 158.5 143.6 158.8 142.5 158.2 139.1 158.4 138.6 158.2 137.8 158.7 136.7 159 135.5 158 134.6 157.9 133.5 160.1 131.6 162 131.3 163.9 132.4 165.5 133.9 167 134.1 168.7 132.7 171 132.4 171.9 132.4 172.9 131.1 175 131.1 175.7 132.5 177.1 133.8 177.6 135.3 177.6 136.9 179 138.8 181.4 139.2 182.5 141.3 185.5 142.1 186.4 141.3 187.3 141.7 188.3 141.9 189.3 142.7 189.8 146 189 147.5 189.5 148.6 190.2 149.4 191.6 149.6 192.9 148.7 194 148 194 147.3 194.9 145.7 194.4 144 194.7 142.6 195.1 141.9 195.9 140.5 195.9 140 197.3 138.5 198.8 135.4 204.2 133.6 206.3 133.2 207.2 132.5 208.1 131.5 210.4 129 212.5 126.9 213.2 124.6 214.6 124.5 215 123 215.8 120.4 218.4 119.5 220.5 119.5 221.5 118.2 222.8 117.9 223.7 117.7 224.9 117.4 225.7 117.7 227.5 120.8 230.2 123.8 233.3 124.5 234.7 126.6 237.4 131.9 239.8 132.7 241.4 133.6 241.4 134.4 240.6 136.2 240.1 137.4 240.1 138 241.6 138.9 242.5 139.7 242.5 141.4 241.1 142.7 240.6 143.6 241.2 143.7 243.6 144.9 245.6 148.7 245.6 149.3 246.2 149.2 247.2 147.8 246.9 146 248.6 145.8 249.4 146.1 250.7 144.2 251.8 143.7 253.4 142.2 255.1 140.8 254.9 138.4 256 137.3 257.5 135.2 258.8 134.8 259.6 135.1 261 137.1 262.2 137.9 263.7 138 264.6 139 266.6 141.1 267.1 142.4 266 143.6 265.9 145 266.9 145.8 266.9 147 268.2 148 268.2 149.5 267 151 266.2 151.9 266.9 152.8 268 153.7 269.8 155.1 270.9 156.1 270.4 156.8 270.9 158.5 272.8 159.4 273.5 159.1 275.2 161.3 277.5 161.6 278.8 162.9 279.5 163.7 279 165 277.2 164.8 276 166.9 274.5 169.1 275 174.3 271.8 172.9 270.3 172.7 269.2 175 266.1 177.9 267.3 178.8 270.2 182.5 273.4 182.9 274.2 184.4 273.5 188.7 277.6 189.8 279.1 191.9 279.5 197.6 279.3 201.3 278.1 202.7 274.9 202.7 268.7 204.9 267.5 206.8 267.2 212 268.1 216.6 266.9 217.9 265.4 217.7 262.4 218.1 261 217.7 258.9 218.6 256.1 218.6 255 221.9 252.3 222.9 250.5 222.6 244.3 223.2 243.4 223.4 242.3 224.3 241.6 228.3 243 229 242.8 229.4 241.8 229.3 240.2 229.7 239.7 233.2 238.7 234.6 238.7 236.9 237.1 238.9 234 238.7 232.7 239.8 232.3 242 233 243.2 232.8 243.5 230.7 242.2 229.5 241.5 228 242.1 225.9 244.1 224 245.2 221.9 247.1 220.2 248.4 220.2 250.4 221.9 251.1 223.1 252.6 223.4 253.6 225 253 226.3 253.1 228.9 253.4 229.4 251.7 231.8 251.9 235.7 253.1 236.5 254 236.7 256 240.1 258 240.4 259.8 240.9 261.5 242.6 264 242.8 267.4 241.2 268.5 239.4 274.3 235.2 274.3 233.8 275.4 231.3 277.2 230 281 230 282.5 229 283.8 229 284.9 230 284.9 231.7 286.5 233.3 286.2 234.2 288.4 234 289.8 234.9 290.1 236.3 288.4 238.7 288.5 239.5 289.8 240.5 290.7 240.8 291.6 241.8 291.6 242.7 291 244.3 294.2 244.1 298.4 244.5 301.8 240.6 299.9 232.1 301.3 227.8 303.5 225.3 307.4 224.9 309.4 226.5 311.8 227.2 311.6 228.4 312.8 231.6 314 232.6 316.4 232 317.2 232.8 319.7 232.6 321.8 234.5 321.1 235.7 320.4 236.8 320.8 238.9 322.9 242.6 324.7 243 326.9 242.3 328.4 240.9 328.6 240.3 332.5 237 334.1 237.3 337 236.9 339.1 235.2 338.3 232.5 338.2 230.2 337.1 228.5 338.4 223.8 340.1 222.9 341.8 221.5 346.4 220.2 347.4 219.2 349 219.7 351.6 218.3 355.8 219.4 357.6 218.7 359 219.5 359 220.8 360.7 223.7 360.8 226 362.7 227.7 364.3 228.2 367 230 369.3 229.1 371 227.7 372.5 227.6 375.3 228.4 377.9 228.5 379.2 228 382.8 228 393.1 224.5 399.1 224.6 400.6 224.5 401.9 223.7 402.7 223.7 404.3 222.3 406.1 221.5 408.1 221.5 410.7 223.2 412.4 223.9 416.5 218.2 419.3 216.7 419.6 215.6 421.2 215.4 422.8 212.2 422.8 211.2 423.9 210.3 424.1 208.7 424.9 207.6 425 206.4 427 204.2 427 202.4 427.9 200.9 429.1 200.8 429.5 198.6 427.2 196.5 427 195.3 428.3 194 427.8 193.2 428.6 192.2 429.1 193.3 431 192.7 430.3 191.5 432.3 188.9 433.9 189 435.3 187 429.9 182.5 427.7 179.5 423.7 178.8 417 179.2 413.7 178.3 407.9 177.1 399.8 170.6 395.3 166.2 393.1 163.1 392.1 161.4 387.1 159.1 385.6 157.5 381.5 155.1 374.7 153.5 371 154.5 368.6 156.5 366.2 157.1 364.3 155.8 362.9 154.3 360.6 154.3 358.5 155.2 357.8 156 357.1 155.6 352.6 156.3 350.4 156.1 346.3 156.6 344.7 158.5 343.8 159.6 343.8 160.5 343.3 161.3 341.4 162.4 340.2 163.7 338.5 164.5 336 165.2 328.7 166.3 326 166 320.9 166.6 313.4 164.6 311.8 162.4 311.1 160.1 310.2 159.2 307.2 158.9 305.4 157.2 303.9 153.6 301.4 152 300.2 150.6 298.4 150.1 296.6 147.4 296.5 144.9 297.1 142 295.1 138.9 288.4 130.7 286.9 127.4 286.4 124.4 286.7 122.1 285.6 119.6 282.7 117.6 281.1 117.5 278.7 115.8 277.2 115.8 275.5 115.7 273.3 116.5 270.9 116.6 268.6 114.7 267.7 112.4 265.6 110.3 262.5 110.5 261 108.7 260.2 108.2 258.8 108.2 258.2 107.5 256.5 104.1 254 105.2 253.4 106.4 253.7 108.8 252.9 111.2 252 113.1 251.5 114.5 250.6 114.8 248.1 113.8 247.7 112.5 242.6 113.3 242 112.1 240.7 111 239.7 112.4 240.6 117.2 240.3 119 240.5 123.1 239.8 124.1 238.3 124.4 234.5 124.5 233.2 125 232.1 127 231.3 128.7 229.5 129.9 225.7 129.1 219.5 125.3 212 120.7 209.7 117.5 208.5 115.4 207.4 115.2 205.4 115.8 202.6 116.8 200.6 114.3 196.5 112.2"/><polygon class="o" points="-0.3 326.4 49.6 326.4 50.2 327.8 50.2 332.1 50.2 335.6 49.2 338.2 50 340.3 49.9 342.4 51.3 344.4 51.8 346.8 51.1 348.7 49 350.4 48.4 351.4 42 351.4 40.8 353.8 38.3 356 35.8 356.9 33.7 357.1 31.5 356.9 28.9 359.2 27.2 362.5 26.4 363.2 21.9 363.2 20.4 363.8 18.2 363.8 14.4 364 11.7 363.4 8.9 361.3 -0.3 351.9 -0.3 326.4"/><path class="p" d="M124.2,303.3l-1.8-.1-2.9-1.7h-2.6l-1.4-.5-2.6-3.1-.2-.7-.1-1.7-.2-.4-.1-1-.6-1.2h-1.3l-1.1-.4-.4-.5-.4-1.4-1.1-1-2.3-.8-.1-.5.9-1,1-.4,2.2-2h.7l.6-.4H113l.9-.9.4-.9-.8-1.3-2.3-1.2-4.1-4v-3.1l1.2-3.4v-1.8l.7-.8-.3-1.8.6-1.9,1.8-1.4v-2l.8-.5.4-1.1,1.3-1.2,1.9-.2.3-1.6-.5-.6-.2-1.4H114l-.1-.4-.2-1.4h-1.9l-.7-.9-.9-.6L110,249l.9-1.5.1-.6,1-1.8.2-2-1.3-2.5.1-1.5,3.2-1.2,1-1h.6l1-1h1.6l.8-.9h1l.7-.7h1.4l.5-.5,1.1-.2.7,1.4,2.1,2.6,5.3,2.5.8,1.6h.9l.7-.8,1.8-.5h1.2l.6,1.5.9.9h.8l1.7-1.4,1.2-.5.9.6.1,2.4,1.2,2h3.8l.7.6-.2,1-1.4-.3-1.8,1.7-.2.7.3,1.4-1.9,1.1-.5,1.6-1.5,1.7-1.4-.2-2.4,1.1-1.1,1.5-2.1,1.2-.5.8.3,1.4,2.1,1.2.8,1.4.1.9.9,2,2.2.5,1.3-1,1.2-.1,1.4.9.8.1,1.2,1.3h1l1.5-1.3,1.5-.8.9.7.8,1.1.9,1.8,1.3,1.1,1-.5.7.5,1.8,1.9.9.7-.3,1.6,2.2,2.3.3,1.3,1.2.7.9-.5,1.3-1.8-.3-1.2,2.2-1.5,2.2.5,5.2-3.2-1.4-1.5-.2-1.1,2.4-3.1,2.9,1.2.9,2.8,3.7,3.3.4.8,1.5-.7,4.3,4.1,1.1,1.6,2.1.4,5.7-.2,3.7-1.2,1.3-3.2v-6.2l2.2-1.2,1.9-.3,5.3.9,4.5-1.2,1.3-1.6-.2-2.9.4-1.4-.4-2.1.8-2.8V255l3.3-2.7,1-1.9-.3-6.2.6-.9.2-1.1.9-.8,4,1.4.8-.2.4-.9-.1-1.6.4-.5,3.5-1h1.4l2.3-1.7,2-3.1-.2-1.3,1.1-.4,2.2.6,1.2-.1.3-2.1-1.3-1.2-.7-1.5.6-2,2.1-1.9,1.1-2.2L247,220l1.3.1,2,1.7.7,1.1,1.5.3,1,1.6-.6,1.3.1,2.6.3.6-1.7,2.4.2,3.9,1.2.8.9.2L256,240l2,.3,1.7.5,1.8,1.7,2.4.3,3.4-1.6,1.1-1.8,5.9-4.2v-1.5l1.1-2.5,1.7-1.3H281l1.5-1,1.3.1,1.1.9v1.7l1.6,1.6-.3.8,2.2-.1,1.4.9.3,1.4-1.7,2.3v.8l1.3,1,.9.2.9,1v.9l-.7,1.5,3.2-.2,4.2.4,1.2,1.1.4,2-.7,1.6-3,2.7.1,1.7,3.5,4.6.1.8,1.8-1.4,1.6.1,1.3,1.3.2,2.6,3.3,2.2v1.1l-.7.4-3.3.9-.7.8.5,1.4,3.1,2.7,1.7.2,2.5,1.7,1.4-.1,2.7-2.2,1.1.7,2-.4,2-3.2h1.6l.6,1.1-.6,2.3.7,1.4.9.5,1.2-.9h5.1l.2.6v2.2l1.1,1.2.1.7,1.5,1.4-.3,1.8,2.6-.2,2.8.6,1.7-.4,3.2,3.8,1.4,4,1.4,2v1.4l1.3,2.9-.9,9.6-1.2,1.9.3,1.5,1.8,2.3,5.2,4.6,4.2,3-2.8,1.7-2.1,1.7-1,1.4-2.3,1-2.6-2.7-2.3-1.1-1.7,2.6-.8,2.4-1.4.5-3.5.1-1.1,1.1-3.5,1.5-.1,1,.5.8.4,3.7.2,1.2-1.6,2H329l-3.6,2.3-1.9,1.3-.2,1.7.2,1.2,1.1,1.6-.2,2.3.1,1.8-1.9,1.7-2.7,1.4-.2.7.8,3.7.1.8-.9,1-1.1.2-2.2.1-1,.7-.3.9.7,1.5.8,2v3l-1.2,1.4-1.3,2.8-2.8,1.3-1.5.3,1.4,8.6v3.5l-1,6.9-1.6,2.2-1.4.6h-1.3l-.8-1-2.9-1-2.6-1.4-2.6-3.3-1.4-6.1.7-2.7-2.1-2.3-.8-2.4-17-.2-1.5-1.5-1.1.1-1.8,1.9-1.6.3-.8-1.9-.7-1.6h-3.8l-2,2.6-.9.4-1.1-.6-1.6-3.3-3.8-3.3-1-.2-1.5-1.8.1-2.3.9-2.2-.2-2-1-1.8-1.4-1.3-.2-3.4-.6-1.4-1.6-1-2.2-.3-1.9,1.4-.2,1.1-1,.7-.8.2-2.9,3-2.4,1.9h-2l-2.6.9.2,1,.5,1,1.3,1.6.4.9-.1,1.7-3.1,2.8v1.8l-2.2,2-1.9,1.2-.6.1-1.9,2-.5,2.1.3,2.6.4,1.3,3.3,2.9-.1,2,.6,1.8-.2,1.1-.4.6.3,1v1.4l1,.7,2.8-.7,1.9.4,1.1-.4.4-3.3,1.3-.4,1.1.1,1.6-.1,1.9.8,1.6,2.2.3.8-.9,1.8-2,.2-.7.1-.7-.4-1,.1-1.1,1.3-1.7,1.6-1.3,1.5-1.5,1.3-1.5.7.1.9-.4.8v1.9l.4,1.2-1,3.1-1.6,1-7.2-3.3h-1.5l-5.2-4.6-4.9-.6-7.5-2.4-2.9-.5-3.3-1.8-10.2-3.5-6.2,1.2-4,.2-6.5,2.4-2.8,5.3L166,401l-1.3,2.3-3,1.9-5.1-.8-1.2.8-1.9-.1-5.4-6.7v-1.2l-.5-.4-1.9.7-1.1-.2-1.1-1-3.7-1.4h-1.6l-1.3-2.1.8-.8.3-2.2-4.6-4-.1-2.3,3.6-4.5-1.3-2-4.8-1.4-1.8-.7-6.5-6.1.5-1.5-.1-2.6-5.3-4.1-1.9-2.4-2.8-2.2-.9-1.8,1.8-2.2,1.8-5.2-2-1.3-1.2-2-1.1.2-1.2,2.3-1.5-.9-2.1-1.2-.7-1.8,1.1-2.7,2.7-1.1,4.9-2.5,1-1.4v-3.3l-.9-2.7,3.5-10.2,6.3-8.7Z"/><polygon class="q" points="27.5 363.1 30 364.5 31.5 365 32.5 366 34.9 365.9 36.6 367.3 36.6 368.3 36.4 369.6 36.9 372.2 37.8 373.1 39.5 373 42.3 370.9 43.7 372.4 44.5 377.3 45 378.5 44 380.9 42.4 382.6 41.6 384.2 41.1 386.9 38.7 388.6 37.5 390.1 36.8 392.1 39.5 391.3 43.1 391.2 47.1 392.1 49.6 395 52 400.4 51.8 406.1 50.4 407.5 49.8 409.2 47.5 411.4 44.8 411.4 43.6 412.2 43.5 413.1 41.8 414.7 41.8 416.3 42.3 418 43 418.5 42.8 419.4 42 421.1 40 421 37.2 420.5 36.3 421.8 35.4 421.8 34.5 423.3 30.8 423.9 28.6 424.8 29 426.9 28.4 428.6 26.6 428.6 22.7 428.3 21.8 426.1 18.7 424.5 17.5 422.5 16.4 422.5 16.4 421.4 18.2 420.7 19.3 419.1 18.2 417.8 17 417 14.8 417.2 13.7 415.4 12.7 415.5 11.6 416.7 10 417.8 7.2 418.1 5.6 416.1 2.1 414.4 -0.4 411.1 -0.3 351.9 8.9 361.3 11.7 363.4 14.4 364 18.2 363.8 20.4 363.8 21.9 363.2 26.4 363.2 27.2 362.5 27.5 363.1"/><polygon class="r" points="83.6 376.7 80.33 377.49 77.93 379.9 77.3 382.7 74.3 385.2 70.68 389.17 69.1 393.1 69.7 395.4 72.3 398.5 73.2 400.7 76.6 405.1 78.7 408.5 81.6 410.8 84.9 410.7 90.4 408.5 95.4 403.9 96.9 400.7 99.3 398.7 101 392.5 100.8 385.8 98.4 381.6 94.4 380.6 91.5 378.6 83.6 376.7"/><polygon class="r" points="121.6 398.4 122.5 398.6 122.5 400.4 123.3 401 124 400.7 123.8 398.4 125.2 397.2 127.4 397.5 129.2 397.6 129.5 399.1 130.7 400.6 135.3 401.1 135.4 402.2 136.5 403.6 136.5 407.1 137.5 407.1 138 407.9 137.9 408.5 136.8 408.5 135 410.7 134 411.1 131.6 410.6 131.1 410.8 131.4 412.4 131.3 414.1 128.2 414.8 126 416.2 124.5 416.2 124 414.6 122.6 414.2 121.4 412.6 119.9 412.2 118.4 412.8 116.3 412.8 115.2 416.9 114.1 418.1 113.2 417.4 111.3 417.4 110.7 416.2 111.3 415 109 412.9 105.3 411 104.7 408.6 105.9 408.2 107.9 408.2 110.6 407.4 111.7 406.6 112.9 406.5 113.5 405 114.1 401.7 115.8 400.7 118.4 400.4 120.2 399 120.9 398.5 121.6 398.4"/><polygon class="s" points="376.8 230.7 375.3 228.4 372.5 227.6 371 227.7 369.3 229.1 367 230 364.3 228.2 362.7 227.7 360.8 226 360.7 223.7 359 220.8 359 219.5 357.6 218.7 355.8 219.4 351.6 218.3 349 219.7 347.4 219.2 346.4 220.2 341.8 221.5 340.1 222.9 338.4 223.8 337.1 228.5 338.2 230.2 338.3 232.5 339.1 235.2 337 236.9 334.1 237.3 332.5 237 328.6 240.3 328.4 240.9 326.9 242.3 324.7 243 322.9 242.6 320.8 238.9 320.4 236.8 321.8 234.5 319.7 232.6 317.2 232.8 316.4 232 314 232.6 312.8 231.6 311.6 228.4 311.8 227.2 309.4 226.5 307.4 224.9 303.5 225.3 301.3 227.8 299.9 232.1 301.8 240.6 298.4 244.5 299.7 245.6 300 247.6 299.3 249.2 296.3 251.8 296.5 253.5 299.9 258.1 300 258.9 301.9 257.5 303.5 257.6 304.8 258.9 305 261.4 308.3 263.7 308.3 264.8 307.6 265.2 304.3 266.1 303.6 266.9 304.1 268.3 307.2 271 308.9 271.3 311.4 272.9 312.8 272.8 315.5 270.6 316.6 271.3 318.7 270.9 320.7 267.6 322.3 267.6 322.8 268.7 322.3 270.9 322.9 272.4 323.8 272.8 325 272 330.1 272 330.3 272.6 330.3 274.8 331.4 276 331.5 276.8 332.9 278.2 332.7 280 335.2 279.8 338.1 280.4 339.7 280 343 283.8 344.3 287.8 345.8 289.8 345.8 291.2 347 294.1 346.1 303.8 345 305.7 345.2 307.2 347 309.5 352.2 314.1 356.4 317.1 357.9 320.4 358.7 321.8 360.2 322.5 363.6 321.6 366.7 320.3 369.8 321.5 375.4 326.2 376.2 325.3 376.6 323.5 377.1 322.8 379.5 322.6 382.2 319.4 383.3 317.3 385.6 317.2 387.3 315.4 387.5 313.8 385.1 312 386.3 310.6 387.8 310.6 388.8 309.7 388.5 308.3 390.7 306.1 393.7 305.6 395.1 304.6 395.1 303.4 394.8 302.8 395.9 301.3 396.6 301 399.6 301.2 401.2 299.7 404.1 299.1 405.6 298.3 408.3 295.9 409.9 295.5 411.6 293.9 412.8 291.7 413.3 289.6 413.2 284.6 413.5 282.9 413.3 282.1 413.5 278.1 413.2 276.3 413.3 274.7 412.2 273.3 411.9 271.5 410.5 270 410.5 267.7 410 266.7 411.3 264.3 410 259.1 408.5 257.2 406.7 257.1 406.2 258 404.4 258.9 403.5 259.7 402.1 259.6 401.4 258.6 400 258.6 398.4 257.9 396.8 255.9 396.7 253.5 395 251.3 392.9 252.1 392.5 250.6 391.3 250.2 390 248.5 389 248.3 387.7 246.9 387.7 245.5 384.5 239.6 384.2 237 382.5 234.9 379.2 233.6 376.8 230.7"/><polygon class="t" points="420 271.1 416.2 272.3 412.4 272.3 411.9 271.5 410.5 270 410.5 267.7 410 266.7 411.3 264.3 410 259.1 408.5 257.2 406.7 257.1 406.2 258 404.4 258.9 403.5 259.7 402.1 259.6 401.4 258.6 400 258.6 398.4 257.9 396.8 255.9 396.7 253.5 395 251.3 392.9 252.1 392.5 250.6 391.3 250.2 390 248.5 389 248.3 387.7 246.9 387.7 245.5 384.5 239.6 384.2 237 382.5 234.9 379.2 233.6 376.8 230.7 375.3 228.4 377.9 228.5 379.2 228 382.8 228 393.1 224.5 399.1 224.6 400.6 224.5 401.9 223.7 402.7 223.7 404.3 222.3 406.1 221.5 408.1 221.5 410.7 223.2 412.4 223.9 416.5 218.2 419.3 216.7 419.6 215.6 421.2 215.4 422.8 212.2 422.8 211.2 423.9 210.3 424.1 208.7 424.9 207.6 425 206.4 427 204.2 427 202.4 427.9 200.9 429.1 200.8 429.5 198.6 427.2 196.5 427 195.3 428.3 194 427.8 193.2 428.6 192.2 429.1 193.3 431 192.7 430.3 191.5 432.3 188.9 433.9 189 435.3 187 437.7 187.8 440.9 187.8 441.5 188.3 442.6 188.2 446.8 185.6 448.7 186.5 449.5 184.9 449.6 183 450.7 181.1 450.7 178.2 449.5 176.4 449.7 172.6 451 172.1 452.3 168.4 455.6 167.2 457.7 167.8 462.2 165.8 464.8 165.7 468.2 167.2 471.1 164.2 478.3 160.1 480.8 160.6 482.3 159.9 483 159 484.3 158.6 484.9 157.3 483.9 155.2 485.6 154.2 486.8 152.5 489.9 152.3 495.6 153.3 497.6 154.7 498.7 157.9 499.8 158.7 503.2 158.9 505.7 161.8 507.7 162.6 508.4 162.8 509 162 510.6 161.8 512.1 163.1 512.3 164.4 511.1 166.5 511 167.3 512.9 168.6 513.6 168.2 515.7 170 514.9 171.9 513.2 172.4 513.6 174 513.8 175.5 514.8 177 515.4 177.3 515.4 179.4 516.9 180.5 516.9 181.6 516.5 182 515.3 182.2 514.7 182.9 514.6 183.8 512.5 185.8 512.1 187.4 511.2 188.1 511 190 510.3 190.2 509.2 189.4 505.9 188.8 503 191.1 502.6 192.1 503.1 193.1 504.6 195 502 198.3 503 199.5 502.9 200.4 504.3 201.2 504.5 202.4 503.3 202.4 501.4 204.1 501.5 206.7 500.7 207.7 503.2 209.8 510 215.5 509.1 216.7 509.1 217.8 507.6 219.1 506.2 221.5 503.1 224.9 500.7 228.7 497 232.8 497.1 234.3 496.6 235.2 495.9 237.3 495 237.9 491.5 236.3 487.8 237 486.8 238.1 485 238.3 483.2 239.6 482.8 240.1 482.9 241.3 485.6 243.7 485.7 244.2 484.7 245.2 483 245.2 481.2 246.7 480.6 251.8 479.2 252.9 478.5 254.3 475.7 256.1 475.5 258.6 476.1 259.6 476.1 260.9 475.7 261.6 475.7 262.9 478 265.5 475.9 267 476.6 269.6 475.6 271.9 473 275.2 471.7 276.4 470.8 276.9 468.7 276.2 467.4 274.5 467.3 269.7 466.8 269 464.9 268.9 463.8 268.1 463.7 265.4 463.2 264.9 461.8 265.6 460.7 266.2 459.7 268.4 456.7 270.5 455.5 270.7 452.8 269.4 451.8 268.6 450.7 269 450 270.5 450.3 272.8 449.5 276.3 448 278 445.8 278.4 440.8 278.8 434.4 278.9 429.2 273.9 426.9 273.1 425.3 271.9 420 271.1"/><polygon class="e" points="380.2 323.9 378.1 324.9 377.4 326.2 377.9 330 377.4 349.2 377.4 353.7 377.4 356.4 376.2 363.1 376.8 366.4 375.3 370.6 373.3 374.7 371.4 376.5 365.9 377.6 362.5 377.6 357.1 376.5 357.1 375 330.4 375 330.4 401.5 333.3 401.5 333.1 404.4 331.4 407.7 330.4 408.9 328.9 408.9 327.7 409.9 321 422.3 321 423.4 318.6 426.4 318 428.2 313.6 433.9 310.6 445.4 310.6 446.9 309.2 448.6 309.2 451.3 308.1 452.8 308.1 454.2 301.8 460.1 296.7 462.5 292.1 463.7 289.2 463.7 287.3 463.1 284.1 464.2 278.9 464.2 274.5 463.7 273.4 463.7 268.3 464.2 265.5 462.7 260.6 458.6 258.6 457.1 253.5 456.8 251.9 457.2 250.2 455.7 249.3 455.7 245.1 458.7 243.8 459.8 242.3 459.7 240.7 458.7 240 456.8 234.9 453.6 229.6 453 226.7 453.2 223.3 451.7 220.5 451.7 218.1 452 215.8 452.4 215.3 450.3 216.5 442.9 214.7 438.9 215.6 436.4 216.8 435.6 219.1 433.2 219.1 428.5 221.8 421.2 221.6 414.5 218.5 409.3 218.5 405.8 220.7 404.4 222.2 404.4 229.4 407.7 231 406.7 232 403.6 231.6 402.4 231.6 400.5 232 399.7 231.8 398.8 233.3 398.1 234.8 396.8 236.1 395.4 237.8 393.7 238.9 392.4 239.9 392.3 240.7 392.7 243.4 392.4 244.2 390.5 242.4 387.5 240.5 386.7 239 386.8 237.9 386.7 236.6 387.1 236.2 390.4 235.2 390.8 233.2 390.4 230.4 391.1 229.4 390.4 229.5 389 229.2 388 229.5 387.4 229.7 386.4 229.2 384.6 229.3 382.6 226 379.7 225.5 378.4 225.3 375.8 225.8 373.7 227.7 371.6 228.3 371.5 230.2 370.4 232.5 368.4 232.5 366.6 235.6 363.8 235.7 362.1 235.3 361.2 233.9 359.7 233.4 358.7 233.3 357.7 235.8 356.8 237.8 356.8 240.3 354.9 243.2 351.9 244 351.7 244.9 351 245.2 349.9 247.1 348.5 249.2 348.7 250.8 349.7 251.4 351.1 251.6 354.5 253 355.8 254 357.6 254.3 359.6 253.4 361.8 253.2 364.1 254.7 366 255.7 366.2 259.6 369.5 261.2 372.7 262.3 373.4 263.2 373 265.3 370.4 269.1 370.5 270.6 374 272.1 373.7 273.9 371.8 275 371.7 276.5 373.2 293.4 373.3 294.2 375.7 296.4 378 295.7 380.6 297.1 386.7 299.7 390 302.3 391.5 305.3 392.5 306.1 393.4 307.3 393.4 308.7 392.8 310.3 390.6 311.3 383.7 311.4 380.2 310 371.6 311.5 371.4 314.3 370.1 315.6 367.4 316.8 366 316.8 362.9 315.3 359.4 315.7 358.5 316.7 357.8 318.8 357.7 320 357.5 320.9 356.5 319.9 352.1 320.2 351.4 322.9 349.9 324.8 348.2 324.7 346.5 324.9 344.2 323.8 342.6 323.5 341.4 323.8 339.7 329.2 336.1 330.7 336.1 332.2 334.1 331.7 329.1 331.2 328.3 331.3 327.3 334.9 325.7 336 324.7 339.4 324.6 340.8 324 341.6 321.6 343.3 319.1 345.6 320.2 348.2 322.9 350.5 321.9 351.5 320.5 353.6 318.8 356.4 317.1 357.9 320.4 358.7 321.8 360.2 322.5 363.6 321.6 366.7 320.3 369.8 321.5 375.4 326.2 376.2 325.3 376.6 323.5 377.1 322.8 379.5 322.6 380.2 323.9"/><polygon class="u" points="655.9 21 657.3 22.4 658.6 24.1 659.8 24.5 662.1 23.7 660.9 21 659.3 20.2 657.3 20.1 655.9 21"/><polyline class="u" points="660.7 10 658.3 10.3 657.2 11.5 657.5 13.1 657.4 15.2 658.1 16.3 660.7 16.7 662.3 16.3 662.7 15.6 662.4 14.9 661.1 14.3 659.7 13 659.3 11.7 660 11"/><polyline class="u" points="657.2 3.6 658.4 5.2 659.8 5.2 661.3 5.2 662.5 5.9 663.6 8 664.7 9 666.4 9.8 668.1 9.8 668.2 9 666.9 7.6 667.1 6.4 668 5.2 669.5 5.2 671.2 3.5 674 4.1 677.3 3.2 676.1 1.3 676.4 0 659.2 0 658.8 1 659.4 1.9 661.3 2.8 661.7 3.6 660.4 4 659.5 3.8 658.7 3.1 657.7 3"/><polyline class="u" points="678.5 6 676.7 6.4 676.3 7 676.8 7.7 678.2 8.1 678.9 7.5 678.8 6.7"/><polyline class="v" points="516.9 326.1 516.64 331.87 513.79 333.51 512.86 335.65 513.58 337.29 512.29 338.43 508.73 338.96 506.59 341.21 506.59 342.28 506.12 343.17 506.12 344.74 507.41 346.56 505.8 347.74 499.81 348.48 495.82 347.52 492 348.02 489.9 349.59 490.47 351.34 493.21 353.62 494.39 353.01 496.35 353.19 498.81 355.88 498.31 357.35 500.88 359.06 501.56 360.73 501.56 361.48 499.99 362.77 499.03 362.62 497.42 364.41 498.88 368.4 497.17 372.39 497.21 374.07 498.96 375.39 498.96 380.92 499.24 384.73 500.28 386.02 502.02 387.3 504.38 386.05 506.12 386.05 508.23 385.16 508.3 383.91 509.12 383.24 511.51 381.67 513.26 381.67 515 382.45 516.07 382.34 517.18 380.4 518.89 380.2 520.46 380.63 521.49 380.4 522.1 379.49 522.17 377 522.46 376.18 523.74 375.96 525.13 376.39 527.34 378.17 529.48 378.53 529.59 380.74 530.8 381.2 533.05 383.77 532.09 386.05 532.37 387.34 537.15 387.8 538.68 389.05 538.68 391.79 537.01 395 534.62 403.1 533.8 410.44 534.9 412.51 547.23 421.02 557.38 428.77 564.86 436.45 554.2 437.6 535.2 451.1 524.1 463.3 515.4 482.1 513.5 484.3 510.8 486.9 509.9 490 507.8 491.4 505.3 493.2 504.6 494.9 503.3 495.9 496.1 495.5 488.8 495.2 483.5 491.9 482.8 483.5 483.8 479.5 489.1 472.3 485.8 460.4 484.2 457.3 480.6 455.4 476.6 455.3 473.8 451.5 470.4 450 466.8 445 463.1 446.8 460.9 446.1 458.4 446.1 456.1 447.8 449.5 448.1 435.2 445.3 426.1 441 423.8 436.5 425.4 426.4 424.4 415.4 426.2 412.3 430.9 410.4 434.8 409.2 436.6 407.3 436.3 402.8 439.1 398.9 434.9 394.1 434.2 387 432.1 384.2 432.2 380.4 431.4 379.2 426 379.2 425.9 370.4 423 367.5 415.5 367.4 413.2 365 393.1 365.2 391.1 364 385.2 363.6 376.2 363.1 377.4 356.4 377.4 353.7 377.4 349.2 377.9 330 377.4 326.2 378.1 324.9 380.2 323.9 379.5 322.6 382.2 319.4 383.3 317.3 385.6 317.2 387.3 315.4 387.5 313.8 385.1 312 386.3 310.6 387.8 310.6 388.8 309.7 388.5 308.3 390.7 306.1 393.7 305.6 395.1 304.6 395.1 303.4 394.8 302.8 395.9 301.3 396.6 301 399.6 301.2 401.2 299.7 404.1 299.1 405.6 298.3 408.3 295.9 409.9 295.5 411.6 293.9 412.8 291.7 413.3 289.6 413.2 284.6 413.5 282.9 413.3 282.1 413.5 278.1 413.2 276.3 413.3 274.7 412.2 273.3 412 272.3 411.9 271.5 412.4 272.3 416.2 272.3 420 271.1 425.3 271.9 426.9 273.1 429.2 273.9 434.4 278.9 440.8 278.8 445.8 278.4 448 278 449.5 276.3 450.3 272.8 450 270.5 450.7 269 451.8 268.6 452.8 269.4 455.5 270.7 456.7 270.5 459.7 268.4 460.7 266.2 463.2 264.9 463.7 265.4 463.8 268.1 464.9 268.9 466.8 269 467.3 269.7 467.4 274.5 468.7 276.2 470.8 276.9 471.7 276.4 475.6 271.9 476.9 272.2 481.9 276.4 481.2 279.5 481.9 281.1 483.6 282.1 486.8 280.4 489 282.7 489.6 286.1 488.5 288.1 488.5 290 487.6 291.6 488 293.5 495 297.9 507.4 303.9 507.4 307.8 508.5 310.4 507.6 313.3 507.6 314.4 508.5 315.4 509 317.4 511.2 319.9 516.9 326.1"/><polygon class="w" points="357 379.4 359.1 379.4 359.1 376.9 362.5 377.6 365.9 377.6 371.4 376.5 373.3 374.7 375.3 370.6 376.8 366.4 376.2 363.1 391.1 364 393.1 365.2 413.2 365 415.5 367.4 423 367.5 425.9 370.4 426 379.2 431.4 379.2 432.2 380.4 432.1 384.2 434.2 387 434.9 394.1 439.1 398.9 436.3 402.8 436.6 407.3 434.8 409.2 426.2 412.3 424.4 415.4 425.4 426.4 423.8 436.5 426.1 441 435.2 445.3 449.5 448.1 456.1 447.8 458.4 446.1 460.9 446.1 463.1 446.8 466.8 445 470.4 450 473.8 451.5 476.6 455.3 473.9 457.2 471.5 459.3 471.2 462.9 472.8 465.7 474.5 467.1 474.9 468.3 472.3 469.8 469.1 471.4 466.2 475.9 464.9 482.7 467.3 487.8 467.5 489.8 463.1 490.9 459.2 493.5 457.3 490.3 453 488.1 452.6 487 449.3 486.7 447.2 487.2 445.8 488.7 444 488.1 441.4 488.8 438.6 488.1 437 488.7 435.6 488.1 431.5 489.1 428.3 491.7 424.9 495.9 421.2 499.4 418.2 498.7 416.8 496.9 415.5 495.9 413.5 493.9 412.2 493.3 408.3 494 406.3 493.1 403.8 490.3 401.8 488.6 398.2 489.7 396 492.3 396.1 494.3 393.6 497.3 390.8 496.7 387.7 497.1 383.5 497.2 381.5 498.5 381.4 500.3 377.1 502.3 372.7 501.5 369.4 498.8 366 498.3 364.5 495.9 364.9 488.6 363.4 485.2 366.2 479.7 368.3 475.6 373.4 471.3 372.4 466.2 376.2 461.5 375 459.2 374.5 455.7 378.2 452.4 379.2 447.8 373.6 443.9 368.9 438.2 366.5 432.7 366.7 426.6 358 410.3 356.4 406.7 356.4 401.4 357 401.6 357 379.4"/><polygon class="x" points="213 455.4 215.8 452.4 220.5 451.7 223.3 451.7 226.7 453.2 229.6 453 234.9 453.6 240 456.8 240.7 458.7 242.3 459.7 243.8 459.8 249.3 455.7 250.2 455.7 251.9 457.2 253.5 456.8 258.6 457.1 265.5 462.7 268.3 464.2 273.4 463.7 278.9 464.2 284.1 464.2 287.3 463.1 289.2 463.7 292.1 463.7 296.7 462.5 301.8 460.1 308.1 454.2 308.1 452.8 309.2 451.3 309.2 448.6 310.6 446.9 310.6 445.4 313.6 433.9 318 428.2 318.6 426.4 321 423.4 321 422.3 327.7 409.9 328.9 408.9 330.4 408.9 331.4 407.7 333.1 404.4 333.3 401.5 356.4 401.4 356.4 406.7 366.7 426.6 366.5 432.7 368.9 438.2 373.6 443.9 379.2 447.8 378.2 452.4 374.5 455.7 375 459.2 376.2 461.5 372.4 466.2 373.4 471.3 368.3 475.6 363.4 485.2 361.1 488 357.8 491.4 354.6 493.1 349.7 490.9 343.5 490.5 341.2 488.2 337.4 483.6 334.7 482.8 333 481.6 331.9 480.9 330.4 481.4 330.3 482.9 327.3 484.2 324.1 484.2 320.7 487.4 318.6 492 315.1 495.1 311.5 496.3 305.7 496.7 303.1 496 299.8 497.4 299.3 499.6 300.2 502.4 300.3 506.7 300.4 514 297.5 514.9 291.2 514.2 288.7 514.9 286.6 518 286.2 519.2 281.8 519.2 279.2 517.9 275.6 519.2 273.9 521.2 266 519 256.9 512.9 236.9 489.7 236.9 487.9 232.8 482.4 227.4 480.2 221 474.6 215.5 463.3 211.9 459.4 213 455.4"/><polygon class="p" points="204.7 506 207.7 504.3 218.2 500.7 219.9 498.8 226.3 497.1 233.2 494.5 236.9 489.7 256.9 512.9 266 519 273.9 521.2 275.2 526.4 276.4 528.1 273 536.4 265.7 547.7 259 556.2 252.9 570.5 250.8 572.1 249.1 571.5 240.6 558 240.6 556.5 227.2 539.1 227 535.4 220.4 528.1 209.9 521.2 205.5 515.1 205.5 512.1 204 510.2 204.7 506"/><polygon class="d" points="15 56.9 18.4 59.3 22 60.2 24.3 62.6 25.5 64.4 29.2 68 32.1 68 35.2 69.6 35.9 71.5 34.6 77.3 32.5 83.3 30.6 89.5 28.5 91.6 24.2 93.4 17.4 93.4 14.2 92.5 9.6 87.7 8.1 83.1 8.7 73.4 4.9 64.4 4.9 62.1 6.9 59.9 9.8 58.1 15 56.9"/><polygon class="w" points="136.6 13.8 137 17.2 139.9 22.9 142.4 25.4 145.2 26.3 150.3 26 152 26.7 153.2 26.4 154.1 27.1 154 28.3 154.6 29 153.5 32.5 155.3 33 156.4 33.8 156.4 34.4 157 34.9 156.8 36.6 154.7 38 154.2 39.6 155.5 41.4 155.5 42.2 157.7 45.3 159.5 45 160.6 45.8 160.8 47 160.1 48.1 161 49.2 161.2 50.9 160.4 52.2 160.5 54.3 159.4 54.3 158.1 53.5 157 53.3 156.5 52.8 155.8 52.8 155 53.8 153.3 54.6 153.2 56.5 154.6 57.6 155.9 57.7 156.8 56.8 158.4 58 159.6 58.2 160.6 59 160.6 59.6 161.1 60.6 160.4 61.3 160.3 63.2 161.5 64.6 161.9 66.2 163 66.2 164.2 66.5 166 65.7 168.4 65.9 169 67.2 168.5 68.7 170.6 69.4 171.7 70.5 172.9 71 174.3 70 175.9 70.3 177.4 70.9 178.4 70.1 179.7 70.2 180.3 70.8 180.3 71.8 182.5 72.5 183.9 72.4 187.7 76.6 188.6 76.8 189.6 75.5 191.4 72.4 194.5 70.5 195.9 70.6 196.9 69.8 193.2 66.3 191.5 62.9 191.9 61.2 194.7 59 196.2 57.5 196.9 55 195.2 52.7 192.2 52.2 191.4 50.7 192.2 48.6 194.5 46.9 199.3 45.8 198 39.3 198.6 32.9 194.2 32.8 191 31.6 188.5 29.4 187.8 25.2 189.4 22.1 191.5 15.7 191 11.8 189.8 10.8 188.8 11.5 188.8 13.3 187.5 14.7 186.3 15 185.3 16 185 17.3 183.5 18.6 181.6 18 181.5 16.9 180.9 16.2 176.9 16.7 175.5 15.5 175.7 12.7 176.5 11.1 178.9 10.6 180.7 9.3 180.7 7.3 179.6 6.4 176.7 5.1 174.8 2.8 169.8 1.5 163.5 2.3 161.9 2.1 158.1 2.3 146.9 4.8 142.7 6.9 140.5 9.1 138.7 10.3 137.8 11.7 136.6 13.8"/><polygon class="m" points="206.6 73 203.8 71.7 201.3 71.2 199.3 69.9 196.9 69.8 195.9 70.6 194.5 70.5 191.4 72.4 189.6 75.5 190.3 75.6 190.8 76.3 190.3 78.8 188.6 80.4 187.4 80.6 187.1 81 187.4 82.3 188.4 83.4 189.7 82.9 190.5 83.1 190.5 86 189.7 86.6 189.2 87.4 190.9 88.8 192.1 88.6 193.1 89 194.1 92.3 194.8 93.1 196.4 94.4 196.9 95.4 198.1 98.5 198.6 99 196.5 101.9 196.3 103.5 198.1 104.7 198.9 104.7 199.6 104.7 202.7 104.4 204.8 103.3 206.9 103.1 212.7 100.6 211.9 97.7 212.1 95.9 210.5 94.7 209.4 92.3 208.9 90.5 208.8 88.1 207.7 86.7 206 84.4 206.7 80.2 207.2 79.3 208.2 79.2 209.1 78.4 209.4 77.5 208.4 75.1 206.6 73"/><polygon class="u" points="357.1 376.5 357 379.4 359.1 379.4 359.1 376.9 357.1 376.5"/><polygon class="y" points="301 534.6 301 530.6 301.9 524.8 300.4 514 300.2 502.4 299.3 499.6 299.8 497.4 303.1 496 305.7 496.7 311.5 496.3 313.3 503.8 318.7 508 322.7 510.7 326.2 510.3 327.1 511.1 326.8 513.9 325.6 515 325.3 515.8 325.4 518.1 326.3 519.7 329.8 521.2 332.6 521.5 334.1 520.9 335.9 519 337.5 518.2 338.9 519 339.7 521 340.2 523.4 342.6 525.5 344.4 525.7 346.3 524.9 348.1 525.2 349.8 525.2 350.6 524.9 350.1 521.2 349.2 520.5 348.4 519.4 348.4 518.8 349.4 517.8 350.6 517.8 353.3 519.6 354.1 519.5 356.6 518.4 357.5 516.8 359.9 517 362.5 516.1 367 512.9 367 511.8 366.6 511.1 367.4 510.3 368.4 511 370.3 509.7 372.1 506.8 372.3 506.1 371.7 503.2 372.3 502.6 372.7 501.5 377.1 502.3 381.4 500.3 381.5 498.5 383.5 497.2 387.7 497.1 390.8 496.7 393.6 497.3 396.1 494.3 396 492.3 398.2 489.7 401.8 488.6 403.8 490.3 406.3 493.1 408.3 494 412.2 493.3 413.5 493.9 415.5 495.9 416.8 496.9 418.2 498.7 421.2 499.4 424.9 495.9 428.3 491.7 431.5 489.1 435.6 488.1 437 488.7 438.6 488.1 441.4 488.8 444 488.1 445.8 488.7 447.2 487.2 449.3 486.7 452.6 487 453 488.1 457.3 490.3 459.2 493.5 458.1 497 455.3 498.5 453.9 502.3 454.8 504.3 454.4 507.7 455.3 511.1 455.5 515.7 454.4 517.7 454.6 521 457.6 522.6 458.8 522.8 460.6 522.3 463.5 523.1 464.7 523.1 466.8 524.9 466.7 526.8 468.9 532.8 468.9 534 467.4 536.2 466.4 539.7 466.3 541 465.1 543.4 464.6 545.5 463.1 547.6 461.6 548.2 458.4 548.1 453.8 546.3 451 544.4 448.7 544 446.8 544.5 445.8 545.8 445.4 549.2 444.7 550 444.8 552.1 445.5 553.7 445.4 554.5 443.2 557.5 442.3 559.1 442.3 560.5 443 562.5 444.5 564 447.3 565.5 449.9 566.4 451.7 566.9 453.6 567.6 455.7 569.6 456.5 571.5 456.1 573 450 579.2 449.6 580.9 449.2 584.8 450.4 589.2 452.4 592 454.1 593.4 458.1 594.2 459.7 594.6 460.7 595.9 460.6 598.7 459.2 600.1 457.3 600.9 455.4 601.5 453.7 602.2 451.4 602.5 450 603.4 449.5 604.4 448.9 607.2 448 608.3 447.4 609.4 447.4 610.4 446.5 611.5 445.9 613.6 443.4 617.2 439.9 620.5 440.6 622.7 441.5 623 443.4 623.1 448.1 624.1 449.4 625.6 451.7 627.2 452.5 627.2 454.1 626.5 455.4 626.5 457.5 628.1 457.3 630.9 456.2 632.1 456.1 635.8 455.5 637.3 455.5 641 453.3 643.1 449.6 644.4 447.8 645.3 440.4 646.7 437.9 649.1 434 653 428.3 655.8 424.5 655.5 421.9 652.5 418.3 652.2 409.6 656.7 409.4 658 402.6 660.7 391.5 661.3 380.6 658.7 376.2 659.8 372.6 658.5 370.6 654.8 369.9 649.4 370.1 640.5 371.2 637.4 375.7 632.9 380.8 629.1 386 628.5 389.8 628.1 392.8 626.4 392.8 619.3 394.1 617.5 399.4 616.7 404.9 618.5 407.9 616.1 407.8 615.4 406.3 613.6 404 613.1 402.7 611.3 400.3 610.6 397.6 608.1 391.6 608.2 390.3 607.5 383.3 602.5 379.7 598.6 377.2 597.2 375.9 594.9 378 592.9 380 592.6 382 594.2 382 594.8 383.7 594.9 386 593.5 386.1 592.1 387.5 592.1 388.9 592.9 389.6 594.6 392.1 593.7 394 592.9 397.4 588.3 398.9 586.6 400.9 586 402.1 584.9 405.5 584.4 411 584 414.4 582.4 422.2 580.4 423.1 577.9 423.6 574 421.1 573.2 417.3 574.4 415.9 574.2 413.9 572.3 412.2 569.6 411.8 568.8 413.1 565.3 412.9 562.9 411.6 561.3 410.2 561.7 409 563.2 408.6 564.9 408.6 566.5 408.1 567.1 407.2 567 405.2 564.7 404.2 562.4 400.6 558.3 400.6 554.8 400 552.9 398.1 552.3 397.1 552.7 396.8 553.3 397 554.4 396.4 555.5 396.3 557.1 396.9 558.6 397.4 559.3 397.6 560.9 397.1 562.7 396.5 564.6 396.4 566.4 397.4 567.8 398.7 569.6 401.2 576.3 401.8 578.4 400.6 580.5 399.1 581.6 395.4 582.8 390 583.6 385.5 582.8 383 580.1 379.3 573 377.1 571.5 373.9 571.2 371.8 572 369.1 575 364.4 581.5 364.5 582.9 363.2 584.6 361 584.6 359.9 585.6 359.3 586.3 359.5 589.1 362 592.5 364.7 594.3 367.5 595.2 369 596.7 369.5 598.9 369.5 599.8 369.7 601.2 369.2 602.3 364.9 604.3 361.1 607.4 360 610 356.9 612.2 354.7 612.8 349.1 613.3 346.8 615.8 346.2 617.4 346.5 619 348.9 619.9 352.8 621.3 358.8 633.7 360.1 639.8 361.1 645.2 360.8 647.7 358.7 650 354.9 651.7 350.1 650.6 345.5 648.4 339.2 644.7 336.2 644 331.5 645.4 327.5 647.1 324.5 646.7 320.7 643.9 318.7 641 317.4 640.2 315.5 637.7 312.2 637.2 308.1 638.2 304.2 640.4 301.5 642.8 299.5 643.1 297.8 641.5 296.4 638 296.4 636.5 298.2 634.6 302.1 627.2 307.5 621.6 311.4 620.7 312.6 619.8 312.3 618.4 313.8 617.6 316.6 616.1 319.3 610.7 322.4 609.1 320.5 604.5 316.7 601.7 315.8 599.1 316.9 597.3 319 597 320.6 594.9 321.4 590.8 328.5 586.9 334.5 587.6 339.4 585.7 342.6 582.9 341.6 579.4 343.1 576.1 344 574 343.6 571.4 341.9 571.5 337.2 576 334.9 576.8 332.3 575.2 331.5 575.3 329.9 578.3 329.7 580.3 328.2 582.4 325.1 582.2 323.6 582.3 321.4 586.3 320.7 586.9 320.7 587.5 316.5 588.7 311.2 585.8 308 585 300.6 580.1 300 576.8 300.2 572.4 296.9 569.7 294.2 569.2 290.5 571.3 287.1 573.6 285 572.6 282.2 564.3 283.8 559.7 284.3 556 285.5 553.3 289.3 552.6 291 551.9 303.9 551.9 305.3 551.2 305.6 548.7 309.1 545.5 307.9 540.5 310.2 535.9 309 534.8 305.3 535 302.3 535.5 301 534.6"/><polygon class="z" points="467.9 500.4 468.5 500.8 469.8 500.8 473.4 502.9 474.7 502.6 476.6 501 479 498 478.3 496.1 477.4 493 478.1 491.6 479.3 491 480.9 491.8 482.1 491.6 483.5 491.9 482.8 483.5 483.8 479.5 489.1 472.3 485.8 460.4 484.2 457.3 480.6 455.4 476.6 455.3 471.5 459.3 471.2 462.9 472.8 465.7 474.5 467.1 474.9 468.3 469.1 471.4 466.2 475.9 464.9 482.7 467.3 487.8 467.5 489.8 463.1 490.9 459.2 493.5 458.1 497 458.7 499.8 459.2 501.3 459.8 501.8 461.8 501.9 464.1 501.6 465.6 501.1 466.9 501.1 467.9 500.4"/><polygon class="aa" points="471.9 592.6 466.5 569.4 469.2 549.7 471.9 547.4 474.1 545.4 474.1 542 473 537.3 473 535.2 474.1 533.7 474.1 532.5 473.2 532.5 472.2 531.5 471 531.5 468.9 532.8 466.7 526.8 466.8 524.9 464.7 523.1 463.5 523.1 460.6 522.3 458.8 522.8 457.6 522.6 454.6 521 454.4 517.7 455.5 515.7 455.3 511.1 454.4 507.7 454.8 504.3 453.9 502.3 455.3 498.5 458.1 497 458.7 499.8 459.2 501.3 459.8 501.8 461.8 501.9 464.1 501.6 465.6 501.1 466.9 501.1 467.9 500.4 468.5 500.8 469.8 500.8 473.4 502.9 474.7 502.6 476.6 501 479 498 478.3 496.1 477.4 493 478.1 491.6 479.3 491 480.9 491.8 482.1 491.6 483.5 491.9 488.8 495.2 496.1 495.5 503.3 495.9 504.6 494.9 505.3 493.2 509.9 490 510.8 486.9 515.4 482.1 518.2 480.5 520.7 478.7 530.6 476.9 533.7 479.9 537.1 486.4 541.5 489.2 543.9 489.8 546.9 489 548.6 489.8 550.3 491.6 550.1 493.8 553.1 496.5 556.2 496.2 559.1 496 560.4 496.7 561.2 498.2 561.8 500.5 560.8 503.7 559.4 504.3 558 505.8 557.3 510.2 557.2 514.8 554.4 518.7 549.8 521.7 542.5 526.4 537.5 533.9 536.1 536.3 532.5 539.1 529 542.7 527.1 548.3 526.5 552 527.6 555.1 528.8 556.5 530 556.7 532.8 556.2 534.3 556.5 535.3 557.8 535.7 562.6 535.3 570.4 535.4 572.1 536.1 573.9 538.4 575.4 541.7 577.3 536.4 589.8 471.9 592.6"/><polyline class="ab" points="239.6 591.1 238 590.7 235.9 588.8 235.9 584.2 238 581 240.8 577.5 241.8 576.9 246.8 577.3 248.1 579.4 249.3 580.8 249.8 584.2 249.4 588 249.3 589.7 247.3 591.1 244.7 592.7 242.5 592.7 240.6 592.2"/><polyline class="p" points="170.9 566.4 173.1 568.4 174.3 572.1 174.9 575.8 173.4 579.6 171.8 581.8 171.2 582.2 167.1 580.9 166 581.2 161.4 579.6 159.3 577.5 158.6 572.9 159.2 570 163.3 567.5 166.2 567.1 168.7 566.1"/><polyline class="p" points="287.4 585.1 285.7 583.1 283 582.3 278.8 582.9 276 584.1 272.6 585.7 268.9 586.3 265.3 588.7 264.4 592.2 261.2 598.1 258.9 604 253.2 613.6 254.2 615.8 254.2 617.7 257.2 623.3 260.6 627.3 262.2 626.3 264 626.3 270.3 621.9 271.5 618.7 271.6 617.2 274.2 614.9 278.9 609.2 288.9 597.9 288.6 595.9 288.9 588.2 288 586.7"/><polygon class="ac" points="-0.5 477.3 1.8 475.1 2.8 471.3 5 469.4 8.7 468.7 9.6 466.8 9.6 463.8 11.6 463.8 13.7 464.1 16.2 462 19.7 460.9 23.7 462.1 29.3 462.9 31.4 464.7 31.9 467.5 34 469.1 36.7 468.2 40.1 465.7 43.4 464.5 44.4 459.3 47.1 457.7 47.8 450.5 52 447.1 54.2 442.2 57.8 441.2 60.8 442.5 62.3 447.2 63.1 448.2 63.1 449.1 65 451.7 65.6 454.1 65.1 455.7 65.1 457.5 66.1 458.7 68.1 458.3 71.1 456 74.2 454.6 78.5 459.5 80.5 460.9 82.9 460.9 84.1 459.2 82.8 458 80.4 455.8 80.2 453.4 80.7 451.8 80.8 448.1 82 446 85.1 444.5 87.3 439.1 90.6 438.5 92.8 439 92.8 440.7 91.6 442 90.8 443.5 89.2 446.4 89.8 448.3 92 448.9 94.2 449.7 96.6 451.8 98 454.5 97.4 456.8 98 459.6 100.5 461.3 102.3 462 104.9 460.5 110 455.7 113.3 453.3 115 453.7 116.6 455.7 116.9 457.9 118.2 458.9 122.6 459 125.6 460.4 128.1 457.9 130.1 456.7 133.5 456.6 138.2 453.7 140.7 454.2 142.1 456.6 142.1 459.6 149.8 470.9 150.2 472.5 148.6 474.3 145.6 476.3 141.3 478.9 135.1 484.4 130.3 486.3 128.1 490 126.6 493.5 123.8 495.9 119.6 494.9 114.7 492.8 112.4 492.2 111.4 492.4 106.8 489.1 105.9 485.6 106.5 483.6 105.4 481 106 479.8 105.6 478.2 103.9 477.5 102.1 477.8 100.5 479 99.1 478.6 94.7 476.7 93.3 476.9 93.1 478.7 96.1 481.7 96.1 483.4 91.2 486.6 89.8 488.4 86.6 488.4 80.5 492.3 76.6 494.7 76.1 495.9 77.1 497.6 85.1 500.6 85.3 502 83.9 503.6 78.3 502.6 76.3 503.6 72 507.5 65.4 510.3 64.1 511.1 64.6 514 66.5 518.4 67.4 519 66.8 521.1 63.2 524.4 61.9 523.6 59.1 521.1 55.6 520.1 53.9 521.3 53.6 523.3 56.5 526 57.7 527.4 57.5 529.9 57.2 531.4 54.7 533.1 51.1 529.5 49.5 526.6 46.9 526.6 44.7 525.2 42.4 523 41.7 520.1 40 518.3 40 514.5 39.1 513.5 36.7 515.2 32.7 517.9 32.8 524.7 35.3 535.1 38.7 541.6 40.5 543.3 43 542.5 45.5 541.9 47.6 544.7 49.6 547 51.2 547 51.2 549 49.8 551.6 50.4 553.5 53 555.5 53.7 558 54.7 559.7 57.5 559.7 63.5 556.4 64.9 557.7 65.9 560.9 64.3 563.1 65.1 566.9 68.5 569.3 73.4 571.4 76.6 574.8 76.4 577.3 77.8 579.9 76.4 581.7 75.3 582.8 76 587.1 78.5 587.1 79.3 587.9 79.1 589.6 81.1 592.5 79.9 595.2 78.6 596.7 76.9 596.7 74.5 599.1 74.3 603.8 77.3 604.3 79.4 608.7 83.2 609.6 91 613.9 94.7 620.2 91.2 629 87.8 632.4 82.4 635.6 70.9 637.1 69.9 636.2 67.3 636.6 65.7 638.5 64.8 641.8 62.5 644.5 62.5 645.8 65.6 650.4 63.6 653.1 61.9 656.6 61.9 658.5 60.2 664 52.3 667.2 49.4 666.7 46 663.7 44.2 657.9 43.2 654.4 41.1 654.2 37.2 657.1 36 656.8 34.1 655.5 32.6 656.4 31.8 659.6 30.4 661.4 26.7 660.5 23.9 661.7 23.6 664.3 24.9 675.1 26.9 677.3 30.1 679.3 30.7 681.8 30.7 685 32.3 692 35.8 698.8 33.5 702.5 29.6 702.5 25.3 702.5 23.7 704.1 23.3 706.4 25.2 708.3 26 709.1 25.3 710.8 26.8 712.6 27.3 713.1 26.8 714.8 26.7 715.3 27.7 716.3 26.8 718 24.3 719.7 23.3 721.4 21 721.9 19 721.4 17.5 721.8 16.5 721.8 15.5 722.4 14.3 728.5 11.8 732.3 9.1 734.2 7.5 735.5 6.9 738.4 5.3 741 5 741.9 5.6 742.6 3.6 744.2 -0.7 747.2 -0.5 477.3"/><polygon class="ad" points="115.5 647.5 111.3 643.3 108 640.1 105.2 639.3 100.2 639.8 93 642.7 90.9 644.7 90 647.5 87 650.1 84.4 654.2 81.4 661.3 76.9 666.8 73 667.8 71.3 669.7 70.6 671.8 66.3 675.6 63.7 678.8 63.7 680.8 63.7 683.8 65.9 687.3 69 689.8 71.7 692.2 75.8 694.5 81.1 696.3 88.5 694.7 93.7 690.9 110 671.4 119.4 661.9 121.4 656.8 117.8 649.8 115.5 647.5"/><polygon class="ad" points="47.7 750.5 50.9 747.2 51.6 746.1 52 743 54 741.3 55.2 738 55.2 736.4 59 732.9 61.6 732 66.3 730.9 67.8 731.2 69.5 732.6 71.5 733.1 73.3 735.3 77.6 737.3 80 738.7 82.4 741.4 88.8 745.1 90.7 746 92.3 743.9 92.8 739.7 94.3 736 97.9 733.4 98.9 731.6 98.9 727.2 100.9 724 105.4 719.2 104.1 713.2 101.9 711.2 101.3 709.1 95.1 705.6 92.5 704.8 83.4 705.6 75.2 707.5 49.7 713.1 45.2 716 41.5 715.1 37.3 713.1 27.3 713.1 26.7 715.3 27.7 716.3 26.8 718 24.3 719.7 23.3 721.4 21 721.9 19 721.4 17.5 721.8 16.5 721.8 15.5 722.4 14.3 728.5 11.8 732.3 7.5 735.5 6.9 738.4 5.3 741 5 741.9 5.6 742.6 0 746.7 0 750 47.7 750.5"/><polygon class="e" points="91.6 587.6 90.2 587.6 88.3 587.9 87.5 589.1 87.5 591 86.3 592.8 84.5 593.2 81.1 592.5 79.1 589.6 79.3 587.9 78.5 587.1 76 587.1 75.3 582.8 77.8 579.9 76.4 577.3 76.6 574.8 78.7 570.4 76.4 567.5 77.2 564.4 77.1 562.3 72.9 560.7 71.1 560.1 71.1 555.8 68.9 552.9 67.2 552 67.5 550.5 73.6 544.7 75.7 541.2 78.9 540 81.4 536.2 83.3 536.9 84.3 538.3 84.3 540.6 84.8 541.9 86.5 543.2 92.8 544.8 94.6 546.5 97.2 546.9 100 549.3 101.9 551 102.7 552.7 102.7 554.4 102.7 555.5 98.9 557.1 95.8 559 93.2 560.1 92.6 561.7 93.4 564 93.6 566.3 93.4 569.9 94.2 573.8 94.1 575.4 89.5 580.6 89.4 582.2 91.9 585.4 91.6 587.6"/><polyline class="e" points="135.9 521.2 139.6 523.7 141.5 523.7 143.7 520.2 148 516.5 154.4 515.5 158.6 517.8 163.4 522.4 169.7 529.1 174.9 536.2 174.9 539.5 176.9 542.3 176.9 545 176.1 547.2 168 549.8 161.3 551.1 151.9 552.3 144 550.8 139.8 542.8 138.2 541 138.4 538.7 139.7 536.4 140.3 535.2 139.1 533.9 135.9 531.6 134.3 528.2 133.8 524.6 134.6 522.6"/><polygon class="ae" points="126.6 751.6 126.6 747.2 125.5 743.5 125.5 741.4 121.4 734.2 118.7 729 117.4 722.4 118.7 718.8 124.1 714.1 128.9 709.6 137 703.4 147.7 698.6 167.8 692.5 186.5 691 198.6 694.8 203.8 699.7 204.9 709.6 204.9 719.3 202.8 728.2 203.8 735.6 203.8 740.8 204.9 751.6 126.6 751.6"/><polyline class="g" points="255.9 654.6 257.4 653.4 258.7 648.9 261.1 647.3 267.4 645.1 274 644.9 279.2 648.4 284.1 647.9 290.1 648.3 293.5 646.7 296.7 646.3 299.5 643.1 301.5 642.8 307.6 645.4 310.6 648.7 310.6 652.4 310.6 655.2 311.7 657.7 312.3 666.1 311.4 668.2 310.9 669.6 303.6 673.2 302 675.2 300.5 677.5 292.6 679.5 286 680.1 281.5 681.5 270.3 678.8 264.8 679 260.1 677.6 255.9 674 253.4 667.9 253.4 664.1 254.6 662.2"/><rect class="p" x="456.1" y="664.6" width="3.8" height="3.6"/><polyline class="n" points="222.3 52.1 220 52.1 209 50.8 202.3 49 199.3 45.8 198 39.3 198.6 32.9 199.3 30.8 199.9 28 202.5 25.4 205.9 24.1 210.2 23.1 215.1 19.4 217.1 16.4 221.2 14.3 225.6 13.7 228.2 14.6 228.8 17.1 228.8 19.1 230.1 20.6 232.1 20 234.2 21.3 234.6 24.2 235.1 27.9 235.5 29.4 235.1 30.5 235.5 33.4 235.2 35.6 236.2 39.5 236.2 42.3 234 44.9 233.1 46.4 232.4 48.1 233 49.4 233.6 49.4 233.8 50.1 231.5 51.1 228.3 51.3 226.5 52.1"/><polygon class="g" points="292.3 0 292.3 1.4 292.3 3.5 293.3 5.8 293.3 9.1 293.8 14.3 290 18.3 289.1 20.8 286.7 22.7 286.7 25.9 288.6 30.8 285.9 35.9 284.4 37.7 284.4 38.6 286 39.1 287.8 40.9 289.1 42.2 293.5 46.5 296 46.5 298.5 48.8 298.9 50.6 298.9 53.6 297.1 56.7 295.6 56.7 292.6 59.8 292.2 61.2 291.1 61.2 288.8 63.2 289.4 65.8 290 67 289.7 71.6 288.7 73.5 287.2 74.7 287.2 76.4 288.3 76.9 289.4 75.6 291.2 73.5 293.5 72.2 296.9 73.3 297.4 74.7 300.8 77.8 303.9 81.9 307 83.2 306.6 84.8 307 86.5 308.3 86.5 309.2 89.3 311.1 93.4 313 96.6 316.1 98.2 317.6 99.9 321 99.6 321.7 101 327.5 104.8 327.3 109 331.1 107.7 332.8 111.3 334.9 111.3 335.7 109.5 338.6 109.1 341 106.6 342.6 103.1 344.2 102.9 347.2 102 348.8 99.7 351.2 101.5 352.4 105.4 358.7 109.6 359.4 112.9 364.2 116.2 369.8 115.8 372.3 117.3 375.8 117.3 378.6 118.1 382.6 117.9 386.9 115.1 387.4 113.3 389 113.1 390.9 109.6 392.7 109.8 395 109.9 397.9 111.8 401.1 115 406.2 118.1 408.3 120.2 412.7 119.8 415.5 117.9 416.7 117.1 418.6 117.1 421.7 115.6 424.4 115.4 427.1 116.1 429.7 114.2 431.9 111.7 434.4 111.7 438.2 113.3 440.2 115.7 442.2 118 443 115.8 443.3 113.3 444.7 112.4 448.4 112.2 452.4 113.3 457.1 113.2 461.7 111.5 467.6 112.4 473.4 112.5 475.1 112.4 477.7 112.6 480.9 112.5 485.6 110 492.1 109.2 495.1 109.1 497.9 109.9 500.8 109.8 503.5 110.8 510.7 109.3 518.9 110 520.2 109.9 521.3 107.5 521.3 106.2 524.7 105.6 526.7 103.1 528.3 102.4 527 101.5 525.8 99.7 523.6 96.6 520.7 95 519.3 88 520 86.7 519.6 85.2 520.8 82.6 524.5 76.5 523.9 72.1 527 72.7 529.5 72.5 534.3 73.2 537.5 70.8 540 70.4 542.3 69.8 543.8 68.5 546.4 68.2 547.2 67.3 546.8 65.5 548.7 64.5 548.7 63 548 61.5 548 60.6 550.5 60 552.5 58 466.3 57.8 466.3 -2.8 292.3 0"/><polygon class="m" points="281.6 86 284.4 84.9 288.1 84.6 291.6 85 292.1 83.6 298 79.9 298.5 79.1 299.3 79.1 300.4 77.5 300.8 77.8 303.9 81.9 307 83.2 306.6 84.8 307 86.5 308.3 86.5 309.2 89.3 311.1 93.4 313 96.6 316.1 98.2 317.6 99.9 321 99.6 321.7 101 327.5 104.8 327.3 109 331.1 107.7 332.8 111.3 334.9 111.3 335.7 109.5 338.6 109.1 341 106.6 342.6 103.1 344.2 102.9 347.2 102 348.8 99.7 351.2 101.5 352.4 105.4 358.7 109.6 359.4 112.9 364.2 116.2 369.8 115.8 372.3 117.3 375.8 117.3 378.6 118.1 382.6 117.9 386.9 115.1 387.4 113.3 389 113.1 390.9 109.6 395 109.9 397.9 111.8 401.1 115 406.2 118.1 408.3 120.2 412.7 119.8 416.7 117.1 418.6 117.1 421.7 115.6 424.4 115.4 427.1 116.1 429.7 114.2 431.9 111.7 434.4 111.7 438.2 113.3 442.2 118 443 115.8 443.3 113.3 444.7 112.4 448.4 112.2 452.4 113.3 457.1 113.2 461.7 111.5 467.6 112.4 473.4 112.5 475.1 112.4 477.7 112.6 480.9 112.5 485.6 110 486.6 109.9 486.4 110.7 484.8 111.9 484.8 113.6 482.7 116 480.7 117.2 480.5 117.7 481.2 119.6 480.7 122.3 481.3 126.1 480.6 127.6 484.5 132 485.3 132.9 485.3 134.3 486.3 135.6 486.6 137.4 486.6 142.9 487.2 144.4 487.7 145.4 488.7 147.2 489.2 147.9 489.5 149.4 489.5 151.1 489.9 152.3 486.8 152.5 485.6 154.2 483.9 155.2 484.9 157.3 484.3 158.6 483 159 482.3 159.9 480.8 160.6 478.3 160.1 471.1 164.2 468.2 167.2 464.8 165.7 462.2 165.8 457.7 167.8 455.6 167.2 452.3 168.4 451 172.1 449.7 172.6 449.5 176.4 450.7 178.2 450.7 181.1 449.6 183 449.5 184.9 448.7 186.5 446.8 185.6 442.6 188.2 441.5 188.3 440.9 187.8 437.7 187.8 435.3 187 429.9 182.5 427.7 179.5 423.7 178.8 417 179.2 407.9 177.1 395.3 166.2 393.1 163.1 392.1 161.4 387.1 159.1 385.6 157.5 381.5 155.1 374.7 153.5 371 154.5 368.6 156.5 366.2 157.1 364.3 155.8 362.9 154.3 360.6 154.3 358.5 155.2 357.8 156 357.1 155.6 352.6 156.3 350.4 156.1 346.3 156.6 344.7 158.5 343.8 159.6 343.8 160.5 343.3 161.3 341.4 162.4 340.2 163.7 338.5 164.5 336 165.2 328.7 166.3 326 166 320.9 166.6 313.4 164.6 311.8 162.4 311.1 160.1 310.2 159.2 307.2 158.9 305.4 157.2 303.9 153.6 301.4 152 300.2 150.6 298.4 150.1 296.6 147.4 296.5 144.9 297.1 142 295.1 138.9 288.4 130.7 286.9 127.4 286.4 124.4 286.7 122.1 285.6 119.6 282.7 117.6 281.1 117.5 278.7 115.8 275.5 115.7 273.3 116.5 270.9 116.6 268.6 114.7 267.7 112.4 265.6 110.3 262.5 110.5 261 108.7 260.2 108.2 258.8 108.2 258.2 107.5 256.5 104.1 258.9 103 260.6 100.3 267.2 97.7 268.2 96.3 268.1 93.1 269.7 91.4 272.7 90.6 275.8 89.4 277.7 89.4 280.4 88.1 281.6 86"/><polygon class="w" points="496.8 139.4 498.5 139.7 501.3 138.9 502.4 138.5 505.3 139.7 506.9 141.6 508.7 142.6 509.8 144.1 509.8 145.7 509.1 146.3 509.1 147.6 510.6 149.2 512.4 150.6 514.7 150.8 515.1 153.7 513.4 155.8 511.7 157.1 508.7 160.7 509 162 508.4 162.8 505.7 161.8 503.2 158.9 499.8 158.7 498.7 157.9 497.6 154.7 495.6 153.3 489.9 152.3 489.5 151.1 489.5 149.4 489.2 147.9 488.7 147.2 487.7 145.4 487.2 144.4 486.6 142.9 486.6 137.4 486.5 136.8 488.4 136.8 489.5 137.5 492.1 140.6 491.6 141.3 491.7 142 492.7 142.6 494.3 142.5 495.6 141.8 495.7 141 496.1 140.6 496.1 139.8 496.8 139.4"/><polygon class="af" points="510 215.5 511.9 215 513.7 215.5 516.3 217.1 520.1 220.4 521.5 222.3 522.7 226 524.3 228.4 526.4 229.6 532.4 229.6 535.2 230.5 537.4 232.5 538.5 235.1 542.9 241.4 543.9 246.7 546.3 248.9 547.6 250.9 547.8 253.1 547.6 254.9 545.9 257.3 543.6 259.4 543.3 260.7 543.7 262.2 548.1 266.2 550.8 269.7 555.1 272.2 558.9 273.9 559.9 276.3 562.3 278.4 562.8 279.2 562.3 280.1 559.1 281.4 557.4 283.6 557.7 287.2 554.7 291 554.5 293.9 557.2 296.6 560.1 297.8 560.3 299.3 559.3 300.5 560.1 302 559.8 304.3 561.5 304.8 566.1 304.1 573.8 309.5 574.2 310.8 574.6 314.9 572.2 318.4 569.7 318.7 565.8 319.6 563.7 320.9 562.2 323.3 560.8 324.8 559.4 328.2 557 327.6 554.4 326.2 551.1 325.6 549.2 326 546.3 322.8 543.3 320.7 542 321.1 538.7 321.2 537.4 319.5 537.4 316.8 536 315.3 534.3 315.2 531.4 318 528.2 318.4 528.2 320.2 529.5 322.5 528.3 323.9 527.1 323.5 523.7 320.6 522.1 320.9 521.3 323.1 516.9 326.1 509 317.4 508.5 315.4 507.6 314.4 507.6 313.3 508.5 310.4 507.4 307.8 507.4 303.9 495 297.9 488 293.5 487.6 291.6 488.5 290 488.5 288.1 489.6 286.1 489 282.7 486.8 280.4 483.6 282.1 481.9 281.1 481.2 279.5 481.9 276.4 476.9 272.2 475.6 271.9 476.6 269.6 475.9 267 478 265.5 475.7 262.9 475.7 261.6 476.1 260.9 476.1 259.6 475.5 258.6 475.7 256.1 478.5 254.3 479.2 252.9 480.6 251.8 481.2 246.7 483 245.2 484.7 245.2 485.7 244.2 485.6 243.7 482.9 241.3 482.8 240.1 483.2 239.6 485 238.3 486.8 238.1 487.8 237 491.5 236.3 495 237.9 495.9 237.3 496.6 235.2 497.1 234.3 497 232.8 500.7 228.7 503.1 224.9 506.2 221.5 507.6 219.1 509.1 217.8 509.1 216.7 510 215.5"/><polygon class="ag" points="574.6 314.9 575.6 314.9 576.4 316.3 577.2 317.3 579.2 318 580.2 317.5 582.4 317.5 585.8 316.7 585.8 314.7 586.2 313.5 586.2 312.4 587.8 310.7 588.1 309.5 587.8 308.3 589.3 305.3 593.4 302 594 300.1 594 297.3 594.6 296 594.6 294.7 592.3 292.3 592.3 291 590.5 289 588.9 289 588 289.5 587.1 290.7 586 290.2 585.8 289.4 586.4 288.5 586.4 286.8 587.1 286.5 587.9 285.4 587.8 283.6 587 282.1 587.6 280.8 588.5 279.5 586.2 278.3 586 276.9 583 275.2 580.6 274.5 579.1 272.8 579.3 271.6 580.3 270.1 579.9 264.9 579.3 262.9 577.8 257.9 577.4 256.5 578.5 253.4 580 252.8 582.4 249.4 587.2 248.1 587.6 247.1 587.7 242.3 587.9 237 586.3 232.4 587.4 228.7 589.6 226.5 591.9 226.5 593.5 225.1 594.6 221.7 594.9 216.2 596 214.7 596 213.7 595 213.3 593.2 214.3 589.7 216.2 588.4 216.1 586.3 214.7 583 214.3 582.2 216 579.7 217 578.6 218.4 577.5 218.3 576.5 217.2 574.9 217.3 572.4 219.2 570.9 219 570 218.4 568.7 218.4 567.5 220 565.8 220.7 564.4 219.8 563.4 220.3 562.3 221.7 561 222.2 558.7 219.4 554.9 216.3 552 218 550.6 218.2 548.5 217.7 546.8 213.3 543.2 209.8 542.5 209.8 540.5 212.1 537.7 211.5 535 211.3 530.7 209.6 525 209.3 518.9 209.9 513.9 211.9 511.8 214.1 510 215.5 511.9 215 513.7 215.5 516.3 217.1 520.1 220.4 521.5 222.3 522.7 226 524.3 228.4 526.4 229.6 532.4 229.6 535.2 230.5 537.4 232.5 538.5 235.1 542.9 241.4 543.9 246.7 546.3 248.9 547.6 250.9 547.8 253.1 547.6 254.9 545.9 257.3 543.6 259.4 543.3 260.7 543.7 262.2 548.1 266.2 550.8 269.7 555.1 272.2 558.9 273.9 559.9 276.3 562.3 278.4 562.8 279.2 562.3 280.1 559.1 281.4 557.4 283.6 557.7 287.2 554.7 291 554.5 293.9 557.2 296.6 560.1 297.8 560.3 299.3 559.3 300.5 560.1 302 559.8 304.3 561.5 304.8 566.1 304.1 573.8 309.5 574.2 310.8 574.6 314.9"/><polyline class="e" points="283.2 321.3 281.6 320.8 281.6 318.8 279.5 316.1 277.9 315.3 276.3 315.7 275.6 316.6 275.6 319.5 273.9 320.3 271.6 322 270.1 324.7 271.3 326.6 272.7 327.8 274 328.7 275.8 329 275.9 333 279 338 281.8 337.7 282.2 335.8 281.5 333.3 283.2 329.6 282.7 328.6 283.2 327.3 283 326.2 282.4 325.5 282.4 323.4 283.2 322.4"/><polygon class="ah" points="685.4 0 685.9 1.1 686.3 3.1 685.1 5.4 683 7 681.7 7.8 681 9.1 679.8 9.4 679.5 10.3 679.5 11.3 681.3 11.9 683.1 13 683.7 14 683.5 15.5 684 18.2 684.8 19 685.9 19.3 686.6 20.2 686.6 21.3 688.1 22.5 688.4 24.1 689.4 25.6 689.2 27 688.7 29.8 687.4 29.8 686.4 30.5 685.7 31.9 686.6 32.3 688.2 32.3 689.2 33.1 691.1 33.9 691.5 35.2 692.4 36.3 692.4 37.2 694.4 38.8 694.6 39.9 695.2 40.5 694.7 41.5 693.3 41.5 692.2 41.8 690.4 41.8 689.3 42.5 688.4 44.1 687.5 45 688.4 46.6 689.1 47.9 689.2 49.4 689.9 50.3 689.9 51.1 689.3 51.2 688 50.5 685.8 50.4 684 49.3 682.2 49.3 681.6 49.5 681.4 50.6 682 52 682.3 52.7 681.9 53.5 681 54.4 680.1 54.4 679.9 54.7 678.4 54.7 676.3 53.8 675.5 54.4 675.5 56 675.1 58.6 673.5 60.3 673.4 61.1 673.9 62 674 63.2 675.1 63.7 677.8 63.7 678.8 64.4 680.3 65.6 684.6 67.3 684.8 67.6 684.7 68.8 684 69.6 683.7 70.9 683.4 72 682.8 73.1 682.5 75.4 683.9 75.6 685.1 77.4 686.9 78.4 688.1 81.3 689 81.9 694.5 82.8 698.2 84.1 701.1 85.8 703.2 84.5 707.1 84.2 708.7 85.5 711.3 86.8 712.1 87.1 716.5 87.1 718.8 83.9 720.5 83.8 722.9 85.9 725.5 87.7 729.1 88.4 733.4 88.4 736.2 88.1 737 87.5 740.4 87 741.8 86.9 742.7 86.4 745.5 86.5 747.1 86.9 750 86.4 750 0 685.4 0"/><polygon class="ah" points="556.7 0 557.9 1.1 558.9 2.1 559.4 3.7 560.8 5.2 562.1 7.9 564 9.7 562.8 12.6 562.9 14.6 564 15.9 565.6 16.9 567.7 17.7 569.9 19.3 571.2 19.2 572.3 18.6 572.4 17.7 573.9 16.4 575.2 16.4 575.6 18.2 575.8 18.7 577.3 20.4 578.8 20.1 580.3 20.7 580.2 22.7 579.8 23.8 580.3 26.6 581.4 27.9 583.1 28.8 585.8 29.4 591.4 29.5 595.3 28.4 596.5 28.4 598.3 27.4 599.8 27.4 602 26.8 604.7 25.1 608.9 21.4 608.5 20.1 610.1 17.9 610.5 15.4 610.1 13.6 607 11.4 606.6 9.5 608.4 6.2 606.3 3.8 606.6 0.8 608.1 0 556.7 0"/><polyline class="ai" points="555.5 -2.8 555.5 0 555.5 57.8 552.5 58 466.3 57.8 466.3 0 466.3 -2.8"/><polyline class="e" points="719.6 197.2 718.3 193.4 716.3 190.7 713.3 188.5 709.4 187.1 705.4 187.1 700.2 188.6 696.8 191.7 694.9 195.3 694.2 199.5 695.1 204.2 697.6 207.6 700.6 209.8 705.3 211.3 709.9 211.3 714.9 209 717.7 205.6 719.3 202.5 719.6 201.8 720.5 202.2 721.6 202.1 722.6 201.3 723.2 201.5 724 204.3 725.7 207 728.3 209.4 731.6 211 735.1 211.8 738.9 211.5 743.3 209.8 746.3 207 748.5 203 749.2 199.5 748.6 194.7 746 190 742.8 187.1 739.1 185.7 733.9 185.7 729.6 187.2 726.1 189.8 724 193.4 723.4 195.7 723 197.7 722.1 197.1 721 196.8 720.2 197"/><rect class="aj" x="696.8" y="142.8" width="34.2" height="19.5"/><polygon class="u" points="688.1 81.3 683.9 81.8 682.2 82.5 682 83.4 682.3 86 681.4 87.8 677.5 91.3 675 91.9 673.2 92.7 672.1 93.9 669.1 94.9 665.8 96.4 663.3 96.4 661.8 97.8 662 98.8 662.3 99.5 661.8 100.7 660 102.6 657 103 657 105.2 655.9 106.7 653 107.7 649.4 110.6 648.4 114 648.7 116 648.7 118.8 647.2 120.4 644.9 120.4 641.5 120.4 638.5 121.2 637.5 121.7 635.9 124.1 634.8 125.2 633.3 125 631.4 123.7 630.1 123.1 628.9 123.1 626.8 124 625.7 125.8 624.8 127.7 623.1 128.9 622.6 127.3 622.6 125.9 621.9 124.3 620.8 123.6 619.1 123.1 618.9 116.8 617.2 111.8 608.4 103.9 606.1 101.1 605.1 99.3 603.6 97.8 602.6 95.3 604.7 92.1 604.8 90.4 608.7 88.2 609.1 87.2 611.5 86 612.7 86.2 613.5 85.7 614 83.7 614.8 83.1 615.2 80.6 616.5 78.7 618.5 77.3 620.3 77.3 622.6 77.6 624.3 76.9 623.9 75.6 622.5 74.6 620 73.3 620 72.3 621.8 70.1 622.9 70.1 624.5 68.3 625.8 68.1 627.5 70 628.6 70.7 632.2 68.4 633.5 66.1 633.5 64.8 634 64 634.7 61.9 636.9 59 636.9 57.6 638.4 55.7 640.3 55.2 638.9 53.4 638.5 51.7 637.3 50.1 634.2 48.4 634.1 46.3 633.4 45.1 634.5 43.7 635.9 44.7 639.7 41.8 638.8 40.3 640 37.9 638.8 33.2 640.4 31 640.4 29.6 644.6 24.9 648.5 24.1 652.8 24.7 653.7 24.1 653.8 21.7 654.4 19.1 653.2 17.1 651.5 15.4 649.2 14.2 647.5 10.2 646.5 10.8 645.4 12.8 645 13.8 643.1 16 642.8 17.1 643.1 18.8 642.6 20.2 640.2 22.1 637.7 22.3 636.5 20.1 635.2 18 631.9 17.7 630.4 16.9 629.1 17.4 623.1 17.2 621.2 15.1 618.5 14.1 617.5 14.6 617 16.3 616.3 18 614.4 18.3 613.7 17.3 614 15.2 616 13.7 615 10.8 614.3 8.5 612.5 6.2 610.5 7.8 608.4 6.2 606.6 9.5 607 11.4 610.1 13.6 610.5 15.4 610.1 17.9 608.5 20.1 608.9 21.4 604.7 25.1 602 26.8 599.8 27.4 598.3 27.4 596.5 28.4 595.3 28.4 591.4 29.5 585.8 29.4 583.1 28.8 581.4 27.9 580.3 26.6 579.8 23.8 580.2 22.7 580.3 20.7 579.3 20.3 578.5 22.3 576.9 24.6 575.1 25.3 573.8 26.5 573.3 29.2 573.4 31.5 572.7 33 572.7 34.3 577 37.2 577 38 574.2 40.7 572.9 40.7 572.2 41.3 572.6 44 571.9 45.4 572.2 51.1 571.1 52.9 568.8 53.6 567.5 54.8 567.2 56.6 562.8 57.1 562 58.1 555.5 57.8 552.5 58 550.5 60 548 60.6 548 61.5 548.7 63 548.7 64.5 546.8 65.5 547.2 67.3 546.4 68.2 543.8 68.5 542.3 69.8 540 70.4 537.5 70.8 534.3 73.2 529.5 72.5 527 72.7 523.9 72.1 524.5 76.5 520.8 82.6 519.6 85.2 520 86.7 519.3 88 520.7 95 523.6 96.6 527 101.5 528.3 102.4 532.6 104.2 537.2 105.9 546.5 112.1 548.6 112.7 550.7 117.2 550.3 118 550.7 122.1 553.1 125.2 552.8 126.8 553 127.7 556.1 128.9 558.1 129.3 560.9 130.7 563.4 133.8 561.9 136.8 560.3 138.3 557.7 138.3 557 139.2 556.3 141.1 556.7 142.5 558.8 143 562.1 144 564.8 146.5 566.9 148 568 148 569.4 149.4 575.8 151 578 153.2 579.9 153.8 581.6 156.8 581.6 159.3 583.8 160.9 583.7 162.3 583.8 163.1 587.8 166.1 590.4 167.5 593 168 594.1 169.3 594.7 169.3 596.4 170.4 598.5 171.3 600 171.3 609.1 174.7 618.3 175.8 628.9 175.8 635.5 173.9 638.5 173.2 647 172.9 662.2 160.8 665.4 154.9 671.1 154.1 686.6 149.4 686.8 147.4 690.8 146 695.7 141.9 696.7 129.9 698.5 128.6 698.3 122.9 705.4 117.1 706.4 114.4 709.8 112 709.2 107.3 708 105.1 707.3 99.3 704.1 96.2 703.8 93.7 701.1 85.8 698.2 84.1 694.5 82.8 689 81.9 688.1 81.3"/><polygon class="u" points="648.8 31.6 649.7 33.1 650.6 33.7 652.5 32.5 652.5 31.8 651.6 31 649.4 30.6 648.8 31.6"/><polygon class="ak" points="593.5 225.1 594.5 225.7 595.2 226.6 594.3 227.3 594.5 228.4 595.3 228.9 596.9 228.4 598 226.9 601 224.7 602 224.9 603.7 227.5 604.2 228.3 604.2 231.3 605.4 230.2 607.7 227.8 610.7 228.8 613.5 229.1 614.1 228.4 616 229.2 616.3 230.2 617.2 230.1 620.1 227.8 620.1 227 621.5 226 623.6 226.2 626.7 227.5 627.1 229.3 627.9 230.1 629.4 230.2 629.8 230.8 629.8 232 628.3 233.6 628.1 234.5 627 235.5 625.1 236.2 623.7 237.3 624 237.9 625.1 237.9 625.4 239 625.1 240.3 625.5 241.3 626 241.5 627.5 241.5 629.1 242.3 630.3 241.8 630.3 240.7 631.4 240.7 633.6 242.5 635.9 241.4 635.5 239.3 635.9 238.4 637.9 238.1 641.1 234.4 643.3 233.8 643.3 235.1 644.8 236.4 646.6 237.1 647.7 237.9 651.3 237.8 652.5 239.8 651.7 241.5 650.2 242.8 649.2 242.2 648.1 242.8 646.8 244.2 647.4 245.6 647.2 246.9 649.1 248.7 651 249.4 653.9 249.3 655.3 250 655.3 251.4 656.6 253.6 658 253.6 661.6 257.3 666.6 257.7 668.7 259.7 671.2 260.9 673.6 260.6 675.4 261.8 675.4 263.6 677.3 266.8 677.3 267.5 675.5 269.7 675.6 271.8 677.1 272.7 679.2 273.3 682.3 276.4 684.3 279 684.7 282.1 683 285.9 682.1 286.9 680.9 289.9 675.5 297.9 673.4 300.5 670.6 301.5 667.2 303.4 664.7 303.4 662.4 302.7 661.7 304.2 661.4 307.1 661.4 309 660.1 308.9 655 311.1 652.2 315.2 652.2 320.4 651.6 324.4 648.8 327.1 643.2 328.1 640.2 332 639.2 337.4 640.9 346.4 638.5 348.8 630.9 351 610.5 350.4 604.2 351 594.7 339.9 589.5 329.8 585.8 316.7 585.8 314.7 586.2 313.5 586.2 312.4 587.8 310.7 588.1 309.5 587.8 308.3 589.3 305.3 593.4 302 594 300.1 594 297.3 594.6 296 594.6 294.7 592.3 292.3 592.3 291 590.5 289 588.9 289 588 289.5 587.1 290.7 586 290.2 585.8 289.4 586.4 288.5 586.4 286.8 587.1 286.5 587.9 285.4 587.8 283.6 587 282.1 587.6 280.8 588.5 279.5 586.2 278.3 586 276.9 583 275.2 580.6 274.5 579.1 272.8 579.3 271.6 580.3 270.1 579.9 264.9 577.4 256.5 578.5 253.4 580 252.8 582.4 249.4 587.2 248.1 587.6 247.1 587.9 237 586.3 232.4 587.4 228.7 589.6 226.5 591.9 226.5 593.5 225.1"/><polygon class="al" points="250.3 750 255.1 729.5 259.7 721.6 275.8 715.7 292.9 715.2 296.7 715.2 306.7 711.7 314.9 699.4 321.7 685.9 325.5 682.9 335.4 681.5 341.9 675.7 344.9 672.9 349.1 672.9 352.9 674.5 356.2 679.4 358.4 681.5 367.7 683.4 371.2 686.8 375 693.4 377.6 695.6 387.2 695.5 393.7 696.4 397.3 696.1 406.2 689.6 411.5 686.9 416.9 685.6 423.3 687.2 435.2 692.3 453.3 698.6 476.9 698.1 512.2 706.3 543.2 710.8 547.3 713.4 548.6 725 547.8 737.6 544.8 750 250.3 750"/><polyline class="n" points="688.8 481.8 690 478.7 693.9 475.9 697.4 475.9 702.4 478.2 703.7 480.4 704.5 484.4 704.8 486.9 702.7 488.5 699.4 489.4 696.8 491 693.1 490.7 689.8 488.6 688.1 485.2 688.1 483.4"/><polygon class="w" points="532.5 539.1 533.8 539.4 536.6 539.1 538.9 539.3 544.3 538.4 549.8 535.4 553.4 535.4 557.8 536.2 560.8 534.7 561.5 534.7 563 536 565.5 537.1 571 537.1 572.8 540.6 574 543.5 572.9 547.9 574 552.2 571.9 552.9 570.3 552.5 566.2 552.5 562.2 552.9 561.1 554.1 561.4 558.5 563.8 566 563.4 568.5 561.8 571.2 559.2 572.5 556.4 574.4 553 574.4 550.5 576.3 549.8 578.3 546.9 577.8 544 577.8 541.7 577.3 538.4 575.4 536.1 573.9 535.4 572.1 535.3 570.4 535.7 562.6 535.3 557.8 534.3 556.5 532.8 556.2 530 556.7 528.8 556.5 527.6 555.1 526.5 552 527.1 548.3 529 542.7 532.5 539.1"/><rect class="h" x="498.4" y="601.6" width="7.2" height="10.5"/><polygon class="h" points="561.1 607.6 561.6 605.1 562.5 603.3 561.4 602.2 558.8 602.2 554.4 600.8 552.1 600 548.3 599.8 547.4 597.6 545.4 598.7 544.5 597.2 540.9 595.8 540 594.7 538.6 594.7 538 593.1 534.6 594.9 534 596 533.6 600.4 529.3 602.8 529 604.8 527.6 605.3 526.1 606.1 524.2 605.5 521.8 603.6 521 604 520.5 605.2 521.9 609.9 521.9 610.9 519.5 610.1 516.9 611.1 515.2 610.1 513.7 610.1 512.4 610.9 507.9 612.4 509.3 614.1 509.2 614.8 510 616.9 511.2 616.4 517.7 618.4 520 620.5 521.6 624.3 524.9 625.8 526.2 627.5 526 629.3 526.6 630.4 525.9 633.7 525.1 641.6 525.4 643.1 523.8 646 522.4 646 517 645.1 512.9 645.4 504.7 644.6 498.7 645.1 496.1 644 492.8 644 492.1 644.6 491.6 646.1 489.4 646.8 488.2 647.5 487.8 648.1 488 649 489.8 649.8 490.9 652.6 490.6 653.8 490.7 655.4 493.3 654.7 494 655.9 497.3 656.3 498.4 655.8 502.1 656.3 502.6 657.5 502.2 659.3 500.4 661.8 500 664.5 499.8 666 500.5 667.9 498.9 669.6 497.6 671 498.6 673.6 498.5 677.8 499.9 680.4 499.2 682 497.4 683.7 497.5 685.1 498.7 687.3 501.8 687.7 506.8 693.6 508.9 693.6 510.7 691.4 515.3 689.4 517.2 689 519 689.1 526.2 687.6 529 683.1 531.1 682.4 532.7 678.7 533.5 677.6 533.5 675.9 535 674.7 536.1 674.2 536 673.5 533.6 671.9 533.2 669.2 538.5 659.5 542.2 657.3 548.1 653.1 548.5 652.3 548 651.2 547.4 649.9 548.2 649.8 548 648.8 547.3 647.7 546.5 645.4 547.8 643.1 548.8 642.9 550.9 641.7 554.8 641.7 555.6 641.4 559.7 642.3 560.7 642 561.6 640.5 562.5 640.4 563.1 639.1 563.9 638.7 565.3 635.9 565.1 634.6 563.1 633.7 562.2 633.1 561.2 629.7 561 629.1 562.1 627.5 561.6 626.3 560.2 624.6 560.8 623.5 559.9 622.3 559.8 621.2 556.7 621.1 556.2 619.4 558.5 616.2 559 613.9 560.7 613.1 561.1 611.7 560.7 609 560.8 608.2 561.1 607.6"/><polyline class="ae" points="618.3 564.8 611.1 565.7 606.8 564.8 604.5 561.4 604.5 555.5 603.3 552.2 597.3 549.5 593.5 546.1 591.6 542.8 588.8 538.1 590.2 530.1 587 521.5 587 517.7 593.9 514 601.8 511.4 604.9 513.5 606.9 516.2 605.7 519.3 604.1 520.5 605.2 523.4 607.2 529 610.4 537.2 613.1 538.5 617.5 538.5 620.9 540 623.9 541.5 625.4 545.1 624.6 548.1 624.6 552.2 621.9 558.3 620.3 562.1"/><rect class="ae" x="25.2" y="734.8" width="14.9" height="12"/><polyline class="ac" points="87.6 750.7 86.2 749 85.1 748 84.4 747.2 84.4 745.3 82.9 743.1 82.9 741.7 82.4 741.4 80 738.7 73.3 735.3 71.5 733.1 69.5 732.6 67.8 731.2 66.3 730.9 61.6 732 59 732.9 55.2 736.4 55.2 738 54 741.3 52 743 51.6 746.1 50.9 747.2 48.3 749.9 48.2 750"/><polyline class="q" points="67.88 372.9 69.4 373.18 70.56 375 71.29 375.79 73.41 375.79 73.97 375.23 74.98 375 75.46 375.59 74.25 376.91 73.69 376.91 73.33 377.27 72.25 377.27 72.01 378.36 71.17 378.36 70.32 380 69.24 380.36 68.32 380.36 67.67 379.88 66.35 380.36 65.91 380.92 64.27 381.69 63.4 381.52 62.86 380.36 63.4 380 63.14 378.92 62.86 378.2 63.22 377.71 64.11 377.71 64.79 376.99 65.11 375.99 66.23 374.23 67.03 373.54"/><polygon class="am" points="564.86 436.45 576.17 440.73 578.58 443.71 578.95 446.85 581.54 449.93 593.8 453.5 596.88 455.04 598.3 457.44 597.68 460.59 596.69 464.28 597.62 466.19 599.47 466.87 601.01 464.96 601.81 463.73 604.33 464.16 606.55 461.57 609.82 460.52 610.55 459.66 610.55 455.72 607.97 452.82 604.27 450.61 602.18 447.34 600.58 446.79 600.21 444.63 600.88 442.91 602.73 436.45 606.3 435.02 606.98 432.31 603.1 430.96 601.99 429.23 601.56 426.52 603.22 424.92 607.23 424.18 608.83 423.56 608.58 421.78 606.06 419.99 605.38 416.6 602.18 412.85 601.99 409.77 600.76 408.35 599.1 408.35 597.74 410.38 595.46 411.8 593.18 411.31 592.07 407.49 591.89 402.07 591.09 401.14 586.1 401.14 581.85 396 580.8 395.63 577.29 395.63 576.37 394.58 576.37 392.37 579.75 391.38 588.5 382.69 591.58 381.46 593.68 378.88 594.78 374.63 594.29 368.77 591.27 366.93 586.04 362.67 576.67 358.98 569.59 357.69 565.4 351 559.61 339.2 557.21 336.06 549.2 326 546.3 322.8 543.3 320.7 542 321.1 538.7 321.2 537.4 319.5 537.4 316.8 536 315.3 534.3 315.2 531.4 318 528.2 318.4 528.2 320.2 529.5 322.5 528.3 323.9 527.1 323.5 523.7 320.6 522.1 320.9 521.3 323.1 516.9 326.1 516.64 331.87 513.79 333.51 512.86 335.65 513.58 337.29 512.29 338.43 508.73 338.96 506.59 341.21 506.59 342.28 506.12 343.17 506.12 344.74 507.41 346.56 505.8 347.74 499.81 348.48 495.82 347.52 492 348.02 489.9 349.59 490.47 351.34 493.21 353.62 494.39 353.01 496.35 353.19 498.81 355.88 498.31 357.35 500.88 359.06 501.56 360.73 501.56 361.48 499.99 362.77 499.03 362.62 497.42 364.41 498.88 368.4 497.17 372.39 497.21 374.07 498.96 375.39 498.96 380.92 499.24 384.73 500.28 386.02 502.02 387.3 504.38 386.05 506.12 386.05 508.23 385.16 508.3 383.91 509.12 383.24 511.51 381.67 513.26 381.67 515 382.45 516.07 382.34 517.18 380.4 518.89 380.2 520.46 380.63 521.49 380.4 522.1 379.49 522.17 377 522.46 376.18 523.74 375.96 525.13 376.39 527.34 378.17 529.48 378.53 529.59 380.74 530.8 381.2 533.05 383.77 532.09 386.05 532.37 387.34 537.15 387.8 538.68 389.05 538.68 391.79 537.01 395 534.62 403.1 533.8 410.44 534.9 412.51 557.38 428.77 564.86 436.45"/><polygon class="v" points="604.2 351 610.5 350.4 630.9 351 638.5 348.8 640.9 346.4 639.2 337.4 640.2 332 643.2 328.1 648.8 327.1 651.6 324.4 652.2 320.4 652.2 315.2 655 311.1 660.1 308.9 661.4 309 665.1 308.9 670 311.19 671.57 311.29 675.73 314.52 682.65 323.11 685.61 325.51 689.77 326.53 691.13 333.96 690.4 339.46 689.44 341.94 687.5 346.29 689.68 348.82 693.55 346.95 696.69 346.77 699.89 349.06 700.38 352.09 702.49 355.11 701.7 358.97 703.09 361.57 705.09 362 707.63 365.5 709.5 365.5 710.04 364.71 711.13 365.5 714.51 371.24 713.3 374.38 712.94 378.37 716.02 381.09 717.35 382.24 717.65 384.23 716.08 384.65 714.33 384.65 713.24 385.56 713.24 387.19 716.27 392.39 717.65 398.01 716.02 402.24 713.97 404.53 711.37 405.44 708.29 410.69 707.38 414.86 708.53 429.18 709.38 444.17 711.55 448.16 714.15 451.06 715 452.45 715 454.3 712.76 456.07 706.36 457.94 701.04 459.09 691.25 459.09 662.31 449.49 641.34 428.04 604.2 351"/></svg>