<svg width="750" height="750" viewBox="0 0 750 750" fill="none" xmlns="http://www.w3.org/2000/svg">
<path d="M173.028 300.547C171.577 299.015 170.498 297.822 170.243 297.384C169.35 295.846 167.418 291.888 163.542 294.88C161.015 296.832 162.961 289.873 162.649 287.691C162.338 285.509 157.884 288.51 154.286 286.351C152.987 285.572 155.626 282.123 156.436 280.72C157.267 279.282 158.885 277.961 160.021 279.193C161.236 280.513 164.062 282.704 164.415 281.686C164.769 280.669 166.265 278.352 170.067 278.185C172.465 278.08 174.347 275.328 176.383 274.559C178.42 273.791 179.957 274.241 180.913 275.383C181.869 276.526 183.108 277.233 184.584 277.17C186.059 277.108 189.982 282.005 190.637 283.265C190.842 283.659 191.877 283.764 195.804 283.556C199.731 283.349 200.728 282.539 202.245 280.938C203.761 279.338 203.325 278.14 203.284 276.395C203.248 274.892 203.207 275.618 203.186 273.644C203.166 271.67 205.608 271.506 209.784 271.693C213.961 271.88 217.888 272.389 218.334 269.469C218.56 267.994 218.334 264.129 218.646 261.366C218.958 258.602 221.805 256.857 222.864 255.756C223.924 254.654 223.539 249.096 223.623 246.956C223.706 244.816 225.379 246.53 227.561 247.174C229.742 247.818 230.064 246.977 230.21 245.959C230.355 244.941 229.316 243.496 230.438 243.642C231.56 243.787 236.838 242.727 237.378 241.564C237.621 241.042 238.634 240.908 238.936 239.975C239.307 238.828 239.022 236.91 240.007 236.91C240.953 236.91 242.378 237.549 243.404 237.335C244.315 237.146 244.121 235.465 243.985 235.06C243.478 233.539 242.5 233.471 241.98 231.808C241.771 231.139 242.536 230.699 243.279 229.824C243.921 229.068 244.182 228.027 244.91 227.217C245.432 226.635 246.682 225.424 247.133 225.046C248.941 223.529 250.271 226.334 251.414 227.394C251.776 227.73 253.491 227.56 253.751 229.243C253.84 229.821 253.428 230.515 253.117 231.28C252.856 231.924 253.466 233.109 253.231 233.825C252.998 234.537 251.921 234.78 251.849 235.508C251.517 238.915 251.611 238.676 252.442 240.318C252.692 240.812 253.592 240.307 254.239 241.004C254.969 241.79 255 243.043 256.036 244.1C256.642 244.719 258.427 244.493 259.547 244.993C260.45 245.396 260.68 246.561 261.373 246.778C265.695 248.129 267.204 245.336 270.217 243.217C273.229 241.097 275.505 239.736 275.048 238.303C274.591 236.869 275.453 234.625 277.26 234.957C279.068 235.29 280.065 235.02 281.312 234.417C282.077 234.047 283.213 232.787 284.034 233.43C284.551 233.835 285.002 236.453 285.748 236.983C286.443 237.476 285.975 238.154 286.216 238.614C286.645 239.433 290.652 237.108 290.039 240.37C289.869 241.274 288.807 241.448 288.356 242.23C287.882 243.051 288.449 243.902 289.405 244.972C289.907 245.535 292.31 244.879 291.206 247.363C289.498 251.206 298.516 246.049 299.887 250C301.106 253.512 297.376 254.25 296.576 256.421C296.091 257.737 299.52 261.407 301.037 261.989C301.587 262.2 302.784 259.842 304.597 262.197C306.356 264.482 305.306 264.931 305.677 265.964C305.986 266.825 310.027 267.11 307.755 268.983C306.411 270.092 304.497 269.688 304.098 270.535C303.246 272.343 305.836 274.13 308.808 275.272C311.779 276.415 319.356 279.754 320.602 280.876C321.849 281.998 323.574 281.831 323.574 280.232C323.574 278.631 323.899 276.171 325.174 276.18C326.659 276.19 329.921 275.595 329.953 277.582C329.964 278.237 330.632 278.691 331.086 279.535C331.485 280.278 332.869 281.13 333.194 282.309C333.415 283.11 332.733 284.433 332.935 285.457C333.61 288.885 334.877 288.667 336.041 288.896C337.204 289.125 341.069 295.289 342.191 297.533C343.313 299.777 341.025 302.262 338.624 300.677C336.484 299.264 335.778 300.138 335.971 301.162C336.581 304.39 334.278 305.251 334.32 307.391C334.361 309.531 333.049 311.253 333.963 311.918C334.877 312.583 336.103 312.905 336.83 315.336C337.558 317.767 339.859 317.148 341.911 319.024C343.001 320.021 343.645 323.089 343.645 323.089C342.371 322.867 341.886 325.195 341.415 326.663C340.944 328.131 340.542 328.45 338.492 328.103C335.296 327.564 335.597 329.71 333.131 329.876C330.666 330.043 331.372 331.054 331.442 332.452C331.506 333.76 331.733 334.211 332.176 335.458C332.619 336.705 332.324 339.373 330.404 339.416C328.093 339.468 327.563 340.881 326.108 341.068C324.798 341.236 323.227 343.146 323.864 345.224C324.501 347.302 325.402 347.648 325.069 351.139C324.736 354.63 323.227 353.688 321.343 354.325C319.459 354.962 319.625 357.165 320.567 359.658C321.509 362.151 319.543 361.21 317.686 361.348C315.83 361.486 315.609 361.625 315.463 363.454C315.318 365.282 317.132 365.032 316.661 368.883C316.19 372.734 314.265 374.064 314.265 374.064L311 375.803L312.5 388.5L310 397.5H306.5L299 394.5L292 379H270.5L264.245 375.803C262.831 378.588 261.844 376.928 260.934 374.21C260.179 371.955 255.406 369.535 254.507 369.036C253.564 368.513 254.725 363.998 254.87 362.284C255.009 360.643 252.932 359.436 252.516 358.605C252.101 357.774 252.771 355.884 251.982 354.139C251.193 352.394 247.515 351.594 246.352 352.467C245.188 353.339 246.082 354.513 244.419 355.303C242.757 356.093 239.651 359.624 238.861 360.207C238.071 360.788 234.186 360.227 233.646 361.391C233.105 362.555 235.193 364.227 235.858 365.391C236.523 366.555 236.139 367.468 235.308 368.175C234.477 368.882 232.777 368.964 232.628 372.248C232.596 372.933 229.511 374.481 227.267 376.226C225.023 377.972 225.698 381.816 226.062 382.865C226.69 384.678 229.096 385.234 229.594 386.439C230.093 387.643 229.501 391.405 229.917 393.066C230.332 394.729 232.171 394.053 235.039 394.552C237.906 395.051 236.716 391.082 237.513 390.653C238.142 390.314 241.043 390.334 242.622 391.331C244.201 392.328 244.44 393.824 244.316 395.279C244.191 396.733 242.519 397.45 241.5 396.629C239.893 395.334 238.83 395.57 236.254 398.853C233.677 402.136 232.815 401.242 231.984 402.198C231.153 403.154 232.565 405.398 232.732 406.686C232.851 407.611 232.478 408.791 231.736 409.784C231.736 409.784 227.807 406.811 226.789 404.359C225.771 401.907 223.942 401.72 222.01 400.037C220.077 398.354 221.698 395.861 221.781 394.385C221.864 392.91 219.018 392.224 216.565 393.637C214.114 395.051 211.205 392.952 208.94 392.308C206.676 391.664 206.302 397.586 204.307 397.544C202.312 397.502 202.292 392.287 204.12 390.293C205.948 388.298 205.138 385.098 203.476 384.89C201.814 384.683 202.125 383.935 200.484 382.75C198.843 381.566 198.489 387.737 195.705 388.069C192.92 388.401 192.401 387.321 188.225 389.69C184.048 392.059 183.986 385.222 181.181 384.786C178.376 384.35 177.67 383.768 176.381 381.503C175.093 379.238 171.27 380.817 170.709 380.194C170.148 379.571 169.712 377.846 169.109 375.311C168.506 372.777 164.641 371.904 162.709 370.242C160.777 368.579 164.662 367.686 160.881 364.881C157.1 362.076 163.083 359.957 165.037 357.608C166.99 355.26 165.715 353.273 163.763 352.109C161.81 350.946 162.834 349.006 163.645 346.825C164.455 344.643 161.816 344.144 159.614 345.786C157.436 347.409 155.339 342.529 155.574 338.944C155.576 338.905 155.579 338.865 155.582 338.825C155.874 335.23 163.015 333.95 164.205 333.339C165.909 332.467 164.849 326.919 167.322 326.213C168.641 325.836 169.795 326.566 170.771 328.54C171.747 330.514 172.828 329.038 173.056 327.896C173.285 326.753 178.043 323.076 180.37 323.927C182.697 324.779 185.938 323.137 186.084 321.475C186.229 319.813 186.338 318.858 186.957 316.78C187.248 315.803 185.503 314.037 183.84 311.897C182.655 310.367 176.669 304.39 173.028 300.547Z" fill="url(#paint0_linear)"/>
<defs>
<linearGradient id="paint0_linear" x1="248.789" y1="224.605" x2="248.789" y2="409.784" gradientUnits="userSpaceOnUse">
<stop stop-color="#F1C40F"/>
<stop offset="0.395833" stop-color="#F1C40F"/>
<stop offset="0.395933"/>
<stop offset="1"/>
</linearGradient>
</defs>
</svg>
