<svg width="750" height="750" viewBox="0 0 750 750" fill="none" xmlns="http://www.w3.org/2000/svg">
<path d="M615.5 544.998V575.002" stroke="black"/>
<circle cx="615.5" cy="545.5" r="2.5" fill="black" stroke="black"/>
<circle cx="25.5" cy="316.5" r="2.5" fill="black" stroke="black"/>
<line x1="25.5" y1="275" x2="25.5" y2="316" stroke="black"/>
<circle cx="291.5" cy="658.5" r="2.5" fill="black" stroke="black"/>
<line x1="274" y1="658.5" x2="291" y2="658.5" stroke="black"/>
<circle cx="139.5" cy="367.5" r="2.5" fill="black" stroke="black"/>
<line x1="139.5" y1="368" x2="139.5" y2="375" stroke="black"/>
<line x1="46.5" y1="39" x2="46.5" y2="175" stroke="black"/>
<circle cx="46.5" cy="39.5" r="2.5" fill="black" stroke="black"/>
<circle cx="426.5" cy="307.5" r="2.5" fill="black" stroke="black"/>
<line x1="426.5" y1="274" x2="426.5" y2="344" stroke="black"/>
<line x1="531.5" y1="474" x2="531.5" y2="494" stroke="black"/>
<circle cx="531.5" cy="494.5" r="2.5" fill="black" stroke="black"/>
<circle cx="599.5" cy="746.5" r="2.5" fill="black" stroke="black"/>
<line x1="600" y1="746.5" x2="583" y2="746.5" stroke="black"/>
<line x1="577" y1="746.5" x2="574" y2="746.5" stroke="black"/>
<circle cx="255.5" cy="205.5" r="2.5" fill="black" stroke="black"/>
<line x1="258" y1="205.5" x2="274" y2="205.5" stroke="black"/>
<circle cx="75.5" cy="174.5" r="2.5" fill="black" stroke="black"/>
<line x1="475" y1="486.5" x2="465" y2="486.5" stroke="black"/>
<circle cx="465.5" cy="486.5" r="2.5" fill="black" stroke="black"/>
<circle cx="379.5" cy="466.5" r="2.5" fill="black" stroke="black"/>
<line x1="375" y1="466.5" x2="379" y2="466.5" stroke="black"/>
<circle cx="597.5" cy="597.5" r="2.5" fill="black" stroke="black"/>
<line x1="597.5" y1="575" x2="597.5" y2="597" stroke="black"/>
<circle cx="271.5" cy="379.5" r="2.5" fill="black" stroke="black"/>
<circle cx="256.5" cy="624.5" r="2.5" fill="black" stroke="black"/>
<line x1="257" y1="624.5" x2="275" y2="624.5" stroke="black"/>
<line x1="275" y1="303.5" x2="245" y2="303.5" stroke="black"/>
<circle cx="244.5" cy="303.5" r="2.5" fill="black" stroke="black"/>
<circle cx="471.5" cy="199.5" r="2.5" fill="black" stroke="black"/>
<circle cx="458.5" cy="389.5" r="2.5" fill="black" stroke="black"/>
<line x1="458.5" y1="374" x2="458.5" y2="389" stroke="black"/>
<circle cx="264.5" cy="297.5" r="2.5" fill="black" stroke="black"/>
<line x1="266" y1="297.5" x2="275" y2="297.5" stroke="black"/>
<circle cx="344.5" cy="388.5" r="2.5" fill="black" stroke="black"/>
<line x1="344.5" y1="388" x2="344.5" y2="375" stroke="black"/>
<circle cx="587.5" cy="580.5" r="2.5" fill="black" stroke="black"/>
<line x1="587.5" y1="581" x2="587.5" y2="575" stroke="black"/>
<line x1="519" y1="431.5" x2="475" y2="431.5" stroke="black"/>
<circle cx="518.5" cy="431.5" r="2.5" fill="black" stroke="black"/>
<circle cx="431.5" cy="567.5" r="2.5" fill="black" stroke="black"/>
<line x1="431.5" y1="575" x2="431.5" y2="567" stroke="black"/>
<circle cx="475.5" cy="362.5" r="2.5" fill="black" stroke="black"/>
<circle cx="252.5" cy="470.5" r="2.5" fill="black" stroke="black"/>
<line x1="252.5" y1="471" x2="252.5" y2="474" stroke="black"/>
<circle cx="339.5" cy="455.5" r="2.5" fill="black" stroke="black"/>
<line x1="339.5" y1="456" x2="339.5" y2="475" stroke="black"/>
<line x1="480" y1="330.5" x2="474" y2="330.5" stroke="black"/>
<circle cx="480.5" cy="330.5" r="2.5" fill="black" stroke="black"/>
<circle cx="239.5" cy="98.5" r="2.5" fill="black" stroke="black"/>
<line x1="239" y1="98.5" x2="274" y2="98.5" stroke="black"/>
<circle cx="242.5" cy="503.5" r="2.5" fill="black" stroke="black"/>
<line x1="242.5" y1="504" x2="242.5" y2="475" stroke="black"/>
<circle cx="311.5" cy="349.5" r="2.5" fill="black" stroke="black"/>
<line x1="311.5" y1="374" x2="311.5" y2="348" stroke="black"/>
<line x1="742.5" y1="197" x2="742.5" y2="175" stroke="black"/>
<circle cx="742.5" cy="197.5" r="2.5" fill="black" stroke="black"/>
<circle cx="9.5" cy="602.5" r="2.5" fill="black" stroke="black"/>
<line x1="9.5" y1="603" x2="9.5" y2="575" stroke="black"/>
<circle cx="472.5" cy="81.5" r="2.5" fill="black" stroke="black"/>
<circle cx="226.5" cy="487.5" r="2.5" fill="black" stroke="black"/>
<line x1="226.5" y1="488" x2="226.5" y2="475" stroke="black"/>
<circle cx="315.5" cy="626.5" r="2.5" fill="black" stroke="black"/>
<line x1="275" y1="626.5" x2="315" y2="626.5" stroke="black"/>
<circle cx="477.5" cy="412.5" r="2.5" fill="black" stroke="black"/>
<circle cx="279.5" cy="596.5" r="2.5" fill="black" stroke="black"/>
<line x1="279" y1="596.5" x2="275" y2="596.5" stroke="black"/>
<line x1="289.5" y1="283" x2="289.5" y2="275" stroke="black"/>
<circle cx="289.5" cy="282.5" r="2.5" fill="black" stroke="black"/>
<line x1="293.5" y1="274" x2="293.5" y2="258" stroke="black"/>
<circle cx="293.5" cy="256.5" r="2.5" fill="black" stroke="black"/>
<line x1="684.5" y1="175" x2="684.5" y2="114" stroke="black"/>
<circle cx="684.5" cy="114.5" r="2.5" fill="black" stroke="black"/>
<circle cx="525.5" cy="389.5" r="2.5" fill="black" stroke="black"/>
<line x1="525.5" y1="375" x2="525.5" y2="390" stroke="black"/>
<circle cx="279.5" cy="321.5" r="2.5" fill="black" stroke="black"/>
<line x1="274" y1="321.5" x2="279" y2="321.5" stroke="black"/>
<circle cx="514.5" cy="673.5" r="2.5" fill="black" stroke="black"/>
<line x1="513" y1="673.5" x2="540" y2="673.5" stroke="black"/>
<line x1="631.5" y1="574" x2="631.5" y2="522" stroke="black"/>
<circle cx="631.5" cy="521.5" r="2.5" fill="black" stroke="black"/>
<circle cx="279.5" cy="491.5" r="2.5" fill="black" stroke="black"/>
<line x1="274" y1="491.5" x2="279" y2="491.5" stroke="black"/>
<circle cx="317.5" cy="556.5" r="2.5" fill="black" stroke="black"/>
<line x1="317.5" y1="557" x2="317.5" y2="575" stroke="black"/>
<circle cx="144.5" cy="723.5" r="2.5" fill="black" stroke="black"/>
<line x1="147" y1="723.5" x2="174" y2="723.5" stroke="black"/>
<circle cx="339.5" cy="338.5" r="2.5" fill="black" stroke="black"/>
<line x1="339.5" y1="374" x2="339.5" y2="338" stroke="black"/>
<circle cx="665.5" cy="340.5" r="2.5" fill="black" stroke="black"/>
<line x1="665.5" y1="341" x2="665.5" y2="374" stroke="black"/>
<circle cx="421.5" cy="341.5" r="2.5" fill="black" stroke="black"/>
<line x1="421.5" y1="375" x2="421.5" y2="340" stroke="black"/>
<line x1="475" y1="344.5" x2="375" y2="344.5" stroke="black"/>
<circle cx="458.5" cy="668.5" r="2.5" fill="black" stroke="black"/>
<line x1="458" y1="668.5" x2="475" y2="668.5" stroke="black"/>
<circle cx="161.5" cy="521.5" r="2.5" fill="black" stroke="black"/>
<line x1="162" y1="521.5" x2="175" y2="521.5" stroke="black"/>
<circle cx="135.5" cy="403.5" r="2.5" fill="black" stroke="black"/>
<line x1="135.5" y1="404" x2="135.5" y2="375" stroke="black"/>
<circle cx="475.5" cy="134.5" r="2.5" fill="black" stroke="black"/>
<circle cx="269.5" cy="308.5" r="2.5" fill="black" stroke="black"/>
<line x1="269" y1="308.5" x2="275" y2="308.5" stroke="black"/>
<circle cx="158.5" cy="568.5" r="2.5" fill="black" stroke="black"/>
<line x1="158.5" y1="569" x2="158.5" y2="575" stroke="black"/>
<circle cx="377.5" cy="410.5" r="2.5" fill="black" stroke="black"/>
<circle cx="692.5" cy="688.5" r="2.5" fill="black" stroke="black"/>
<line x1="692.5" y1="688" x2="692.5" y2="575" stroke="black"/>
<circle cx="431.5" cy="460.5" r="2.5" fill="black" stroke="black"/>
<line x1="431.5" y1="474" x2="431.5" y2="462" stroke="black"/>
<circle cx="568.5" cy="563.5" r="2.5" fill="black" stroke="black"/>
<line x1="569" y1="563.5" x2="575" y2="563.5" stroke="black"/>
<circle cx="434.5" cy="347.5" r="2.5" fill="black" stroke="black"/>
<line x1="434.5" y1="374" x2="434.5" y2="347" stroke="black"/>
<circle cx="429.5" cy="634.5" r="2.5" fill="black" stroke="black"/>
<line x1="429" y1="634.5" x2="475" y2="634.5" stroke="black"/>
<circle cx="420.5" cy="300.5" r="2.5" fill="black" stroke="black"/>
<line x1="426" y1="300.5" x2="421" y2="300.5" stroke="black"/>
<circle cx="460.5" cy="340.5" r="2.5" fill="black" stroke="black"/>
<line x1="460.5" y1="340" x2="460.5" y2="344" stroke="black"/>
<circle cx="414.5" cy="333.5" r="2.5" fill="black" stroke="black"/>
<line x1="414.5" y1="334" x2="414.5" y2="374" stroke="black"/>
<line x1="313.5" y1="274" x2="313.5" y2="298" stroke="black"/>
<circle cx="313.5" cy="298.5" r="2.5" fill="black" stroke="black"/>
<circle cx="185.5" cy="464.5" r="2.5" fill="black" stroke="black"/>
<line x1="185.5" y1="465" x2="185.5" y2="474" stroke="black"/>
<circle cx="623.5" cy="709.5" r="2.5" fill="black" stroke="black"/>
<line x1="624" y1="709.5" x2="575" y2="709.5" stroke="black"/>
<circle cx="340.5" cy="265.5" r="2.5" fill="black" stroke="black"/>
<line x1="340.5" y1="266" x2="340.5" y2="274" stroke="black"/>
<line x1="539.5" y1="575" x2="539.5" y2="674" stroke="black"/>
<circle cx="539.5" cy="619.5" r="2.5" fill="black" stroke="black"/>
<line x1="299.5" y1="274" x2="299.5" y2="296" stroke="black"/>
<circle cx="299.5" cy="296.5" r="2.5" fill="black" stroke="black"/>
<line x1="417.5" y1="555" x2="417.5" y2="575" stroke="black"/>
<circle cx="417.5" cy="554.5" r="2.5" fill="black" stroke="black"/>
</svg>
